<?xml version="1.0" encoding="UTF-8"?>
<svg width="326px" height="98px" viewBox="0 0 326 98" version="1.1" xmlns="http://www.w3.org/2000/svg" xmlns:xlink="http://www.w3.org/1999/xlink">
    <title>LOGO</title>
    <defs>
        <linearGradient x1="84.0612134%" y1="97.376541%" x2="17.9887359%" y2="33.4741996%" id="linearGradient-1">
            <stop stop-color="#378300" offset="0%"></stop>
            <stop stop-color="#6FA500" offset="34.9999994%"></stop>
            <stop stop-color="#DFE800" offset="99.000001%"></stop>
        </linearGradient>
    </defs>
    <g id="Page-1" stroke="none" stroke-width="1" fill="none" fill-rule="evenodd">
        <g id="1920px" transform="translate(-994.000000, -5165.000000)">
            <g id="LOGO" transform="translate(994.000000, 5165.000977)">
                <g id="Group-41" fill-rule="nonzero">
                    <path d="M58.7351809,69.1050455 C57.904181,68.6041909 56.7043844,68.00832 50.6925184,66.861669 C48.9789836,66.539576 47.1043997,66.2078203 45.0832661,65.8953901 C48.012702,65.323675 50.7456559,64.7422968 53.2612022,64.1738027 C62.7871027,62.0173901 64.7244929,61.0511085 66.0756731,60.2555388 C67.502545,59.4148761 69.2321891,58.1989824 75.8640839,50.8520416 C78.4955837,47.9354896 81.5699592,44.4198438 84.9309998,40.3501989 C79.8290467,41.2665534 75.3358495,42.2102826 71.5641405,43.0670499 C62.0623972,45.2250729 60.1749311,46.1446496 58.7496695,46.9837018 C57.3984894,47.7808819 55.6060467,49.0128898 48.9612685,56.3872088 C47.8253539,57.6465924 46.6443463,58.9838107 45.4182456,60.3988725 C46.3845246,57.4334697 47.2686651,54.6242794 48.0706767,51.9713069 C51.826281,39.544959 52.0179279,36.671895 52.0179279,34.6008372 C52.0179279,32.4106048 51.8037346,29.6261148 48.0706767,17.231977 C46.5874385,12.313617 44.7370178,6.49822568 42.4678726,0 C40.1987274,6.50305749 38.3466889,12.3184485 36.8650611,17.231977 C33.1303928,29.6325568 32.9178099,32.4106048 32.9178099,34.6008372 C32.9178099,36.6783368 33.1094569,39.544959 36.8650611,51.9713069 C37.665999,54.6189113 38.5501445,57.4281016 39.5174971,60.3988725 C38.2892492,58.9848844 37.1082415,57.647666 35.9744742,56.3872088 C29.3313062,49.0128898 27.5388556,47.7808819 26.1876754,46.9837018 C24.7624139,46.1446496 22.8685107,45.2250729 13.3732094,43.0670499 C9.6031109,42.2102826 5.10991124,41.2665534 0.00634765625,40.3501989 C3.36738819,44.4198438 6.44015565,47.9354896 9.07326594,50.8520416 C15.7051607,58.1989824 17.4347982,59.4148761 18.8600598,60.2555388 C20.21124,61.0511085 22.150241,62.0173901 31.6745308,64.1738027 C34.1256585,64.7278026 36.7797058,65.2930813 39.6221764,65.8503022 C37.6461358,66.1031452 35.8118169,66.3785346 34.1321019,66.6555346 C28.0429336,67.668517 26.8399161,68.2659976 26.0089162,68.7571894 C25.1312128,69.2854219 24.0763573,70.0697154 20.2353983,75.0251161 C18.7086775,76.9931042 16.9339465,79.3733753 15.0078303,82.1353226 C18.2851266,81.7665261 21.1614142,81.342975 23.5706698,80.9387483 C29.6405121,79.9241554 30.8177626,79.3653162 31.6938556,78.8370837 C32.5248555,78.3378396 33.6151412,77.5487146 37.4673735,72.5691571 C38.7557454,70.9103782 40.1407483,69.0486819 41.5998296,66.9840659 L40.3114552,76.3360368 L42.4582004,77.5599863 L44.6226657,76.3360368 L43.2634329,66.813357 L43.2634329,66.8036946 C44.7933746,68.8618688 46.2460184,70.7187344 47.5859252,72.369461 C51.5154596,77.2105184 52.6089697,77.9948149 53.4383592,78.4892277 C54.3160626,79.0174601 55.488481,79.5827322 61.4906841,80.7326041 C63.8693409,81.1883657 66.7085859,81.6795547 69.940789,82.1288744 C67.9566963,79.4506714 66.1449247,77.139655 64.5876051,75.2248121 C60.6661228,70.3934174 59.6112738,69.6268361 58.7351809,69.1050455 Z" id="Vector" fill="url(#linearGradient-1)"></path>
                    <path d="M14.1318324,39.6674924 L14.3524653,39.7190285 L14.4136637,31.9292065 L31.8936467,21.8380339 C32.3510188,20.2082436 32.8921354,18.3497698 33.5347109,16.219125 C34.9181003,11.62769 36.3981166,7.00726634 37.9473839,2.43676758 L0,23.9139253 L0,36.8153559 L0.611977171,36.918428 C5.12127902,37.7236603 9.67406535,38.6545101 14.1318324,39.6674924 Z" id="Vector" fill="#FFFFFF"></path>
                    <path d="M53.0259651,21.8085053 L70.9021242,32.1782913 L84.9260445,23.858629 L47.0688477,2.69873047 C48.5859055,7.18387533 50.0369401,11.7157232 51.3929515,16.218583 C52.0371374,18.3363443 52.5702036,20.1851567 53.0259651,21.8085053 Z" id="Vector" fill="#FFFFFF"></path>
                    <path d="M17.4848168,72.8925797 C18.8569331,71.1210686 19.9166192,69.8246422 20.7814388,68.8438692 L14.1543765,65.0914886 L14.1865877,61.110415 C12.587396,59.7044794 10.2989223,57.3966885 6.48856226,53.1740504 C4.30155085,50.7583534 2.12903473,48.2669636 0,45.7546387 L0,73.3306213 L12.110696,80.1992569 L12.1509577,80.1396705 C13.8693238,77.6740491 15.6633809,75.2325847 17.4848168,72.8925797 Z" id="Vector" fill="#FFFFFF"></path>
                    <path d="M67.2817671,73.0217643 C69.1225285,75.2860777 70.9391406,77.6373586 72.6848846,80.009573 L84.9244175,72.938017 L70.8731116,64.7053223 L63.706543,68.8458305 C64.6051823,69.8121094 65.750215,71.1391311 67.2817671,73.0217643 Z" id="Vector" fill="#FFFFFF"></path>
                    <path d="M51.6434903,81.4655353 C50.7335776,80.9179772 49.8059513,80.2512503 47.820248,78.0288086 L42.4670592,81.1192912 L37.357057,78.2204543 C35.35847,80.5556285 34.414733,81.2416866 33.4822738,81.8037389 C31.9426692,82.7313667 30.1518322,83.3497813 24.141577,84.3563219 C22.922455,84.5592405 21.6904503,84.7508838 20.4536133,84.928035 L42.5169832,97.4381256 L64.4193115,84.7879253 C63.2098523,84.5833963 62.0100532,84.3675955 60.8231405,84.1453514 C54.3812807,82.9117352 52.9093157,82.2288957 51.6434903,81.4655353 Z" id="Vector" fill="#FFFFFF"></path>
                </g>
                <path d="M105.575195,40.154919 C105.575195,30.3793969 108.312986,24.0019531 118.570036,24.0019531 C127.570923,24.0019531 130.729035,29.1876533 130.729035,37.8906057 L130.729035,41.7041854 L124.351598,41.7041854 L124.351598,38.3077156 C124.351598,32.9432568 124.232429,29.2472385 118.629622,29.2472385 C112.907641,29.2472385 112.371358,33.1816049 112.371358,39.1419352 L112.371358,58.2758682 C112.371358,65.5471175 113.981821,67.9386576 118.629622,67.9386576 C124.053667,67.9386576 124.351598,64.0638844 124.351598,58.3419028 L124.351598,54.7586184 L130.737095,54.7586184 L130.737095,58.3354547 C130.737095,67.2171688 128.055671,73.2370911 118.578086,73.2370911 C108.317815,73.2370911 105.575195,66.202581 105.575195,57.2033029 L105.575195,40.154919 Z" id="Vector" fill="#FFFFFF" fill-rule="nonzero"></path>
                <path d="M154.274667,24.4189453 L164.581642,72.7006836 L158.204205,72.7006836 L155.997856,60.5400609 L146.162756,60.5400609 L143.838847,72.7006836 L137.520996,72.7006836 L147.778057,24.4189453 L154.274667,24.4189453 Z M151.055349,33.9561142 L147.063,55.71189 L155.108877,55.71189 L151.055349,33.9561142 Z" id="Vector" fill="#FFFFFF"></path>
                <path d="M177.037091,24.4189453 L190.74698,56.4865233 L190.74698,24.4189453 L196.349794,24.4189453 L196.349794,72.7006836 L192.062737,72.7006836 L178.175681,39.7376875 L178.175681,72.7006836 L172.447266,72.7006836 L172.447266,24.4189453 L177.037091,24.4189453 Z" id="Vector" fill="#FFFFFF" fill-rule="nonzero"></path>
                <path d="M211.503399,24.4189453 L225.213289,56.4865233 L225.213289,24.4189453 L230.816103,24.4189453 L230.816103,72.7006836 L226.52421,72.7006836 L212.635561,39.7376875 L212.635561,72.7006836 L206.913574,72.7006836 L206.913574,24.4189453 L211.503399,24.4189453 Z" id="Vector" fill="#FFFFFF" fill-rule="nonzero"></path>
                <path d="M240.942383,24.4189453 L247.384243,24.4189453 L247.384243,56.7248726 C247.384243,62.9847505 248.160487,67.932104 253.826102,67.932104 C259.491718,67.932104 260.267962,62.9847505 260.267962,56.7248726 L260.267962,24.4189453 L266.645399,24.4189453 L266.645399,56.4269405 C266.645399,66.559987 264.321487,73.2369766 253.830919,73.2369766 C243.26788,73.2369766 240.942383,66.559987 240.942383,56.4269405 L240.942383,24.4189453 Z" id="Vector" fill="#FFFFFF" fill-rule="nonzero"></path>
                <path d="M284.096559,24.4189453 L292.620739,63.5806196 L301.202913,24.4189453 L307.760721,24.4189453 L308.654537,72.7006836 L303.230502,72.7006836 L302.694205,37.6521333 L294.521096,72.7006836 L290.705914,72.7006836 L282.603655,37.6521333 L282.067378,72.7006836 L276.591797,72.7006836 L277.479165,24.4189453 L284.096559,24.4189453 Z" id="Vector" fill="#FFFFFF" fill-rule="nonzero"></path>
                <path d="M326.000188,24.4189453 L326.000188,72.7006836 L319.382812,72.7006836 L319.382812,24.4189453 L326.000188,24.4189453 Z" id="Vector" fill="#FFFFFF" fill-rule="nonzero"></path>
            </g>
        </g>
    </g>
</svg>