<?xml version="1.0" encoding="UTF-8"?>
<svg width="379px" height="952px" viewBox="0 0 379 952" version="1.1" xmlns="http://www.w3.org/2000/svg" xmlns:xlink="http://www.w3.org/1999/xlink">
    <title>mazes-bg</title>
    <g id="Page-1" stroke="none" stroke-width="1" fill="none" fill-rule="evenodd" stroke-dasharray="0,0" stroke-opacity="0.300000012">
        <g id="1920px" transform="translate(-1392.000000, -3449.000000)" stroke="#FFFFFF" stroke-width="3">
            <g id="bg" transform="translate(0.000000, 3071.000000)">
                <g id="mazes-bg" transform="translate(1390.000000, 377.000000)">
                    <g id="Group-265" opacity="0.200000003" transform="translate(53.584047, 610.934335)">
                        <line x1="-94.2145116" y1="234.2365" x2="154.65208" y2="234.2365" id="Line-44" transform="translate(30.218784, 234.236500) rotate(59.017071) translate(-30.218784, -234.236500) "></line>
                        <g id="Group-264" transform="translate(-0.402795, 0.111640)">
                            <line x1="-70.4030053" y1="24.4604781" x2="215.793589" y2="24.4604781" id="Line-26" transform="translate(72.695292, 24.460478) rotate(-30.982929) translate(-72.695292, -24.460478) "></line>
                            <line x1="56.2779335" y1="72.6992931" x2="185.384585" y2="72.6992931" id="Line-27" transform="translate(120.831259, 72.699293) rotate(-30.982929) translate(-120.831259, -72.699293) "></line>
                            <line x1="127.321199" y1="66.5659301" x2="254.865337" y2="66.5659301" id="Line-28" transform="translate(191.093268, 66.565930) rotate(-30.982929) translate(-191.093268, -66.565930) "></line>
                            <line x1="97.5411115" y1="214.496255" x2="162.86859" y2="214.496255" id="Line-29" transform="translate(130.204851, 214.496255) rotate(-30.982929) translate(-130.204851, -214.496255) "></line>
                            <line x1="108.154583" y1="171.139757" x2="175.03748" y2="171.139757" id="Line-30" transform="translate(141.596032, 171.139757) rotate(-30.982929) translate(-141.596032, -171.139757) "></line>
                            <line x1="156.728328" y1="244.940082" x2="251.608715" y2="244.940082" id="Line-40" transform="translate(204.168522, 244.940082) rotate(-30.982929) translate(-204.168522, -244.940082) "></line>
                            <line x1="11.7372095" y1="193.45236" x2="75.5092785" y2="193.45236" id="Line-31" transform="translate(43.623244, 193.452360) rotate(-30.982929) translate(-43.623244, -193.452360) "></line>
                            <line x1="20.1730399" y1="84.0656625" x2="54.3922005" y2="84.0656625" id="Line-32" transform="translate(37.282620, 84.065663) rotate(-30.982929) translate(-37.282620, -84.065663) "></line>
                            <line x1="22.3444266" y1="157.61742" x2="56.5635872" y2="157.61742" id="Line-33" transform="translate(39.454007, 157.617420) rotate(-30.982929) translate(-39.454007, -157.617420) "></line>
                            <line x1="-36.081545" y1="118.309857" x2="-3.41780557" y2="118.309857" id="Line-34" transform="translate(-19.749675, 118.309857) rotate(-30.982929) translate(19.749675, -118.309857) "></line>
                            <line x1="220.436223" y1="113.527577" x2="254.655384" y2="113.527577" id="Line-35" transform="translate(237.545804, 113.527577) rotate(-30.982929) translate(-237.545804, -113.527577) "></line>
                            <line x1="180.190618" y1="174.207752" x2="214.409779" y2="174.207752" id="Line-36" transform="translate(197.300198, 174.207752) rotate(-30.982929) translate(-197.300198, -174.207752) "></line>
                            <line x1="226.637884" y1="184.660877" x2="260.857044" y2="184.660877" id="Line-41" transform="translate(243.747464, 184.660877) rotate(-30.982929) translate(-243.747464, -184.660877) "></line>
                            <line x1="79.3555734" y1="311.012598" x2="108.908484" y2="311.012598" id="Line-43" transform="translate(94.132029, 311.012598) rotate(-30.982929) translate(-94.132029, -311.012598) "></line>
                            <line x1="271.038084" y1="194.981732" x2="303.701823" y2="194.981732" id="Line-42" transform="translate(287.369954, 194.981732) rotate(-30.982929) translate(-287.369954, -194.981732) "></line>
                            <line x1="236.551946" y1="140.364979" x2="270.771107" y2="140.364979" id="Line-37" transform="translate(253.661526, 140.364979) rotate(-30.982929) translate(-253.661526, -140.364979) "></line>
                            <line x1="279.346189" y1="148.003216" x2="312.009929" y2="148.003216" id="Line-38" transform="translate(295.678059, 148.003216) rotate(-30.982929) translate(-295.678059, -148.003216) "></line>
                            <line x1="81.5827042" y1="241.871387" x2="215.348497" y2="241.871387" id="Line-39" transform="translate(148.465601, 241.871387) rotate(-30.982929) translate(-148.465601, -241.871387) "></line>
                            <line x1="85.1866189" y1="155.974765" x2="181.622424" y2="155.974765" id="Line-45" transform="translate(133.404521, 155.974765) rotate(59.017071) translate(-133.404521, -155.974765) "></line>
                            <line x1="25.1517749" y1="118.54794" x2="120.032162" y2="118.54794" id="Line-46" transform="translate(72.591968, 118.547940) rotate(59.017071) translate(-72.591968, -118.547940) "></line>
                            <line x1="19.191254" y1="147.412044" x2="87.6295753" y2="147.412044" id="Line-47" transform="translate(53.410415, 147.412044) rotate(59.017071) translate(-53.410415, -147.412044) "></line>
                            <line x1="-18.0429178" y1="122.062495" x2="17.7316564" y2="122.062495" id="Line-48" transform="translate(-0.155631, 122.062495) rotate(59.017071) translate(0.155631, -122.062495) "></line>
                            <line x1="92.8032736" y1="57.3320259" x2="128.577848" y2="57.3320259" id="Line-49" transform="translate(110.690561, 57.332026) rotate(59.017071) translate(-110.690561, -57.332026) "></line>
                            <line x1="147.129662" y1="28.3210645" x2="189.125906" y2="28.3210645" id="Line-50" transform="translate(168.127784, 28.321065) rotate(59.017071) translate(-168.127784, -28.321065) "></line>
                            <line x1="104.329641" y1="15.719233" x2="140.104215" y2="15.719233" id="Line-51" transform="translate(122.216928, 15.719233) rotate(59.017071) translate(-122.216928, -15.719233) "></line>
                            <line x1="189.021019" y1="-46.8520144" x2="203.019765" y2="-46.8520144" id="Line-54" transform="translate(196.020392, -46.852014) rotate(59.017071) translate(-196.020392, 46.852014) "></line>
                            <line x1="182.092848" y1="35.9450571" x2="311.201774" y2="35.9450571" id="Line-55" transform="translate(246.647311, 35.945057) rotate(59.017071) translate(-246.647311, -35.945057) "></line>
                            <line x1="49.3096212" y1="48.7563423" x2="85.0841955" y2="48.7563423" id="Line-52" transform="translate(67.196908, 48.756342) rotate(59.017071) translate(-67.196908, -48.756342) "></line>
                            <line x1="153.569322" y1="-5.3742269" x2="218.8968" y2="-5.3742269" id="Line-53" transform="translate(186.233061, -5.374227) rotate(59.017071) translate(-186.233061, 5.374227) "></line>
                            <line x1="210.058781" y1="64.5408758" x2="242.72252" y2="64.5408758" id="Line-56" transform="translate(226.390650, 64.540876) rotate(59.017071) translate(-226.390650, -64.540876) "></line>
                            <line x1="119.525376" y1="126.440226" x2="184.852855" y2="126.440226" id="Line-57" transform="translate(152.189116, 126.440226) rotate(59.017071) translate(-152.189116, -126.440226) "></line>
                            <line x1="189.31395" y1="121.049113" x2="254.641429" y2="121.049113" id="Line-58" transform="translate(221.977690, 121.049113) rotate(59.017071) translate(-221.977690, -121.049113) "></line>
                            <line x1="247.249034" y1="185.997352" x2="278.357358" y2="185.997352" id="Line-60" transform="translate(262.803196, 185.997352) rotate(59.017071) translate(-262.803196, -185.997352) "></line>
                            <line x1="105.452539" y1="283.752816" x2="161.447525" y2="283.752816" id="Line-64" transform="translate(133.450032, 283.752816) rotate(59.017071) translate(-133.450032, -283.752816) "></line>
                            <line x1="40.3754739" y1="246.996867" x2="105.702953" y2="246.996867" id="Line-65" transform="translate(73.039213, 246.996867) rotate(59.017071) translate(-73.039213, -246.996867) "></line>
                            <line x1="76.0501669" y1="216.656179" x2="110.269327" y2="216.656179" id="Line-66" transform="translate(93.159747, 216.656179) rotate(59.017071) translate(-93.159747, -216.656179) "></line>
                            <line x1="257.169444" y1="141.701454" x2="288.277768" y2="141.701454" id="Line-62" transform="translate(272.723606, 141.701454) rotate(59.017071) translate(-272.723606, -141.701454) "></line>
                            <line x1="271.841999" y1="139.005925" x2="343.391147" y2="139.005925" id="Line-63" transform="translate(307.616573, 139.005925) rotate(59.017071) translate(-307.616573, -139.005925) "></line>
                            <line x1="291.325652" y1="194.707604" x2="317.767733" y2="194.707604" id="Line-61" transform="translate(304.546692, 194.707604) rotate(59.017071) translate(-304.546692, -194.707604) "></line>
                            <line x1="148.290731" y1="165.344268" x2="275.834869" y2="165.344268" id="Line-59" transform="translate(212.062800, 165.344268) rotate(59.017071) translate(-212.062800, -165.344268) "></line>
                        </g>
                    </g>
                    <g id="Group-264" transform="translate(149.481874, 21.362200)">
                        <line x1="25.5961379" y1="7.01013896" x2="171.957277" y2="7.01013896" id="Line-26" transform="translate(98.776707, 7.010139) rotate(20.778656) translate(-98.776707, -7.010139) "></line>
                        <line x1="61.6268146" y1="41.6148427" x2="127.652049" y2="41.6148427" id="Line-27" transform="translate(94.639432, 41.614843) rotate(20.778656) translate(-94.639432, -41.614843) "></line>
                        <line x1="86.7270975" y1="67.8935919" x2="151.953251" y2="67.8935919" id="Line-28" transform="translate(119.340174, 67.893592) rotate(20.778656) translate(-119.340174, -67.893592) "></line>
                        <line x1="23.9455323" y1="90.2609551" x2="57.3540506" y2="90.2609551" id="Line-29" transform="translate(40.649791, 90.260955) rotate(20.778656) translate(-40.649791, -90.260955) "></line>
                        <line x1="44.5685017" y1="81.1138799" x2="78.7724579" y2="81.1138799" id="Line-30" transform="translate(61.670480, 81.113880) rotate(20.778656) translate(-61.670480, -81.113880) "></line>
                        <line x1="27.5705234" y1="129.607161" x2="76.0924175" y2="129.607161" id="Line-40" transform="translate(51.831470, 129.607161) rotate(20.778656) translate(-51.831470, -129.607161) "></line>
                        <line x1="5.38799276" y1="48.8225805" x2="38.0010694" y2="48.8225805" id="Line-31" transform="translate(21.694531, 48.822580) rotate(20.778656) translate(-21.694531, -48.822580) "></line>
                        <line x1="54.8767713" y1="11.6511797" x2="72.376472" y2="11.6511797" id="Line-32" transform="translate(63.626622, 11.651180) rotate(20.778656) translate(-63.626622, -11.651180) "></line>
                        <line x1="26.0222791" y1="35.8045" x2="43.5219799" y2="35.8045" id="Line-33" transform="translate(34.772129, 35.804500) rotate(20.778656) translate(-34.772129, -35.804500) "></line>
                        <line x1="23.4686457" y1="-0.418054308" x2="40.1729049" y2="-0.418054308" id="Line-34" transform="translate(31.820775, -0.418054) rotate(20.778656) translate(-31.820775, 0.418054) "></line>
                        <line x1="106.43097" y1="101.419246" x2="123.930671" y2="101.419246" id="Line-35" transform="translate(115.180821, 101.419246) rotate(20.778656) translate(-115.180821, -101.419246) "></line>
                        <line x1="69.3215955" y1="104.459773" x2="86.8212963" y2="104.459773" id="Line-36" transform="translate(78.071446, 104.459773) rotate(20.778656) translate(-78.071446, -104.459773) "></line>
                        <line x1="79.8186658" y1="126.423152" x2="97.3183666" y2="126.423152" id="Line-41" transform="translate(88.568516, 126.423152) rotate(20.778656) translate(-88.568516, -126.423152) "></line>
                        <line x1="-17.0946757" y1="106.32092" x2="-1.981297" y2="106.32092" id="Line-43" transform="translate(-9.537986, 106.320920) rotate(20.778656) translate(9.537986, -106.320920) "></line>
                        <line x1="89.8797786" y1="147.213782" x2="106.584038" y2="147.213782" id="Line-42" transform="translate(98.231908, 147.213782) rotate(20.778656) translate(-98.231908, -147.213782) "></line>
                        <line x1="100.753236" y1="116.38702" x2="118.252937" y2="116.38702" id="Line-37" transform="translate(109.503087, 116.387020) rotate(20.778656) translate(-109.503087, -116.387020) "></line>
                        <line x1="111.37929" y1="135.679114" x2="128.083549" y2="135.679114" id="Line-38" transform="translate(119.731420, 135.679114) rotate(20.778656) translate(-119.731420, -135.679114) "></line>
                        <line x1="1.22922873" y1="106.261835" x2="69.637141" y2="106.261835" id="Line-39" transform="translate(35.433185, 106.261835) rotate(20.778656) translate(-35.433185, -106.261835) "></line>
                        <line x1="40.5073894" y1="73.0240781" x2="89.8247214" y2="73.0240781" id="Line-45" transform="translate(65.166055, 73.024078) rotate(110.778656) translate(-65.166055, -73.024078) "></line>
                        <line x1="36.6930916" y1="36.7494835" x2="85.2149858" y2="36.7494835" id="Line-46" transform="translate(60.954039, 36.749484) rotate(110.778656) translate(-60.954039, -36.749484) "></line>
                        <line x1="25.7865871" y1="38.1804738" x2="60.7859886" y2="38.1804738" id="Line-47" transform="translate(43.286288, 38.180474) rotate(110.778656) translate(-43.286288, -38.180474) "></line>
                        <line x1="27.3650893" y1="8.64149669" x2="45.6602318" y2="8.64149669" id="Line-48" transform="translate(36.512661, 8.641497) rotate(110.778656) translate(-36.512661, -8.641497) "></line>
                        <line x1="88.4515151" y1="32.6756764" x2="106.746658" y2="32.6756764" id="Line-49" transform="translate(97.599086, 32.675676) rotate(110.778656) translate(-97.599086, -32.675676) "></line>
                        <line x1="116.694537" y1="46.5645882" x2="138.171444" y2="46.5645882" id="Line-50" transform="translate(127.432990, 46.564588) rotate(110.778656) translate(-127.432990, -46.564588) "></line>
                        <line x1="108.815285" y1="24.1361256" x2="127.110427" y2="24.1361256" id="Line-51" transform="translate(117.962856, 24.136126) rotate(110.778656) translate(-117.962856, -24.136126) "></line>
                        <line x1="162.877061" y1="33.9739096" x2="170.036029" y2="33.9739096" id="Line-54" transform="translate(166.456545, 33.973910) rotate(110.778656) translate(-166.456545, -33.973910) "></line>
                        <line x1="116.210296" y1="80.5169748" x2="182.23669" y2="80.5169748" id="Line-55" transform="translate(149.223493, 80.516975) rotate(110.778656) translate(-149.223493, -80.516975) "></line>
                        <line x1="78.1312026" y1="12.4930592" x2="96.426345" y2="12.4930592" id="Line-52" transform="translate(87.278774, 12.493059) rotate(110.778656) translate(-87.278774, -12.493059) "></line>
                        <line x1="129.998329" y1="43.1722967" x2="163.406847" y2="43.1722967" id="Line-53" transform="translate(146.702588, 43.172297) rotate(110.778656) translate(-146.702588, -43.172297) "></line>
                        <line x1="122.97478" y1="81.4311712" x2="139.679039" y2="81.4311712" id="Line-56" transform="translate(131.326910, 81.431171) rotate(110.778656) translate(-131.326910, -81.431171) "></line>
                        <line x1="66.2703014" y1="71.2186835" x2="99.6788197" y2="71.2186835" id="Line-57" transform="translate(82.974561, 71.218683) rotate(110.778656) translate(-82.974561, -71.218683) "></line>
                        <line x1="90.5295788" y1="97.5472967" x2="123.938097" y2="97.5472967" id="Line-58" transform="translate(107.233838, 97.547297) rotate(110.778656) translate(-107.233838, -97.547297) "></line>
                        <line x1="86.1106791" y1="134.502767" x2="102.019499" y2="134.502767" id="Line-60" transform="translate(94.065089, 134.502767) rotate(110.778656) translate(-94.065089, -134.502767) "></line>
                        <line x1="-0.462151799" y1="113.486146" x2="28.1737205" y2="113.486146" id="Line-64" transform="translate(13.855784, 113.486146) rotate(110.778656) translate(-13.855784, -113.486146) "></line>
                        <line x1="-7.20723764" y1="77.585871" x2="26.2012806" y2="77.585871" id="Line-65" transform="translate(9.497021, 77.585871) rotate(110.778656) translate(-9.497021, -77.585871) "></line>
                        <line x1="19.3027473" y1="76.0646543" x2="36.8024481" y2="76.0646543" id="Line-66" transform="translate(28.052598, 76.064654) rotate(110.778656) translate(-28.052598, -76.064654) "></line>
                        <line x1="107.045249" y1="124.465169" x2="122.954069" y2="124.465169" id="Line-62" transform="translate(114.999659, 124.465169) rotate(110.778656) translate(-114.999659, -124.465169) "></line>
                        <line x1="108.828752" y1="137.630057" x2="145.419036" y2="137.630057" id="Line-63" transform="translate(127.123894, 137.630057) rotate(110.778656) translate(-127.123894, -137.630057) "></line>
                        <line x1="97.0203321" y1="154.027611" x2="110.542828" y2="154.027611" id="Line-61" transform="translate(103.781580, 154.027611) rotate(110.778656) translate(-103.781580, -154.027611) "></line>
                        <line x1="53.6902729" y1="107.583382" x2="118.916426" y2="107.583382" id="Line-59" transform="translate(86.303350, 107.583382) rotate(110.778656) translate(-86.303350, -107.583382) "></line>
                    </g>
                    <g id="Group-267" opacity="0.200000003" transform="translate(112.341254, 277.681452)">
                        <line x1="-38.2381716" y1="185.699751" x2="133.911516" y2="185.699751" id="Line-44" transform="translate(47.836672, 185.699751) rotate(38.456881) translate(-47.836672, -185.699751) "></line>
                        <g id="Group-264" transform="translate(-0.421708, 0.203587)">
                            <line x1="-74.4095915" y1="39.4803419" x2="123.562548" y2="39.4803419" id="Line-26" transform="translate(24.576478, 39.480342) rotate(-51.543119) translate(-24.576478, -39.480342) "></line>
                            <line x1="22.8200531" y1="59.0278884" x2="112.127618" y2="59.0278884" id="Line-27" transform="translate(67.473836, 59.027888) rotate(-51.543119) translate(-67.473836, -59.027888) "></line>
                            <line x1="67.3806455" y1="37.9845232" x2="155.607359" y2="37.9845232" id="Line-28" transform="translate(111.494002, 37.984523) rotate(-51.543119) translate(-111.494002, -37.984523) "></line>
                            <line x1="85.3989036" y1="148.590405" x2="130.588199" y2="148.590405" id="Line-29" transform="translate(107.993551, 148.590405) rotate(-51.543119) translate(-107.993551, -148.590405) "></line>
                            <line x1="81.7088606" y1="117.741666" x2="127.974087" y2="117.741666" id="Line-30" transform="translate(104.841474, 117.741666) rotate(-51.543119) translate(-104.841474, -117.741666) "></line>
                            <line x1="130.47557" y1="150.339329" x2="196.10764" y2="150.339329" id="Line-40" transform="translate(163.291605, 150.339329) rotate(-51.543119) translate(-163.291605, -150.339329) "></line>
                            <line x1="24.7495926" y1="155.993346" x2="68.8629494" y2="155.993346" id="Line-31" transform="translate(46.806271, 155.993346) rotate(-51.543119) translate(-46.806271, -155.993346) "></line>
                            <line x1="4.28523031" y1="86.6877797" x2="27.9558148" y2="86.6877797" id="Line-32" transform="translate(16.120523, 86.687780) rotate(-51.543119) translate(-16.120523, -86.687780) "></line>
                            <line x1="23.5606209" y1="133.798131" x2="47.2312054" y2="133.798131" id="Line-33" transform="translate(35.395913, 133.798131) rotate(-51.543119) translate(-35.395913, -133.798131) "></line>
                            <line x1="-23.7971865" y1="122.722068" x2="-1.2025388" y2="122.722068" id="Line-34" transform="translate(-12.499863, 122.722068) rotate(-51.543119) translate(12.499863, -122.722068) "></line>
                            <line x1="141.155347" y1="57.1140492" x2="164.825932" y2="57.1140492" id="Line-35" transform="translate(152.990640, 57.114049) rotate(-51.543119) translate(-152.990640, -57.114049) "></line>
                            <line x1="129.829176" y1="106.192663" x2="153.49976" y2="106.192663" id="Line-36" transform="translate(141.664468, 106.192663) rotate(-51.543119) translate(-141.664468, -106.192663) "></line>
                            <line x1="162.449293" y1="101.680455" x2="186.119877" y2="101.680455" id="Line-41" transform="translate(174.284585, 101.680455) rotate(-51.543119) translate(-174.284585, -101.680455) "></line>
                            <line x1="97.8538971" y1="219.86535" x2="118.296675" y2="219.86535" id="Line-43" transform="translate(108.075286, 219.865350) rotate(-51.543119) translate(-108.075286, -219.865350) "></line>
                            <line x1="193.746759" y1="97.7665015" x2="216.341407" y2="97.7665015" id="Line-42" transform="translate(205.044083, 97.766501) rotate(-51.543119) translate(-205.044083, -97.766501) "></line>
                            <line x1="158.112867" y1="70.5818227" x2="181.783452" y2="70.5818227" id="Line-37" transform="translate(169.948159, 70.581823) rotate(-51.543119) translate(-169.948159, -70.581823) "></line>
                            <line x1="187.715509" y1="65.3216773" x2="210.310157" y2="65.3216773" id="Line-38" transform="translate(199.012833, 65.321677) rotate(-51.543119) translate(-199.012833, -65.321677) "></line>
                            <line x1="80.20299" y1="161.883506" x2="172.733443" y2="161.883506" id="Line-39" transform="translate(126.468217, 161.883506) rotate(-51.543119) translate(-126.468217, -161.883506) "></line>
                            <line x1="62.4938902" y1="109.910366" x2="129.201899" y2="109.910366" id="Line-45" transform="translate(95.847894, 109.910366) rotate(38.456881) translate(-95.847894, -109.910366) "></line>
                            <line x1="14.5546995" y1="100.4433" x2="80.1867691" y2="100.4433" id="Line-46" transform="translate(47.370734, 100.443300) rotate(38.456881) translate(-47.370734, -100.443300) "></line>
                            <line x1="18.2876706" y1="123.798126" x2="65.6288396" y2="123.798126" id="Line-47" transform="translate(41.958255, 123.798126) rotate(38.456881) translate(-41.958255, -123.798126) "></line>
                            <line x1="-11.2668832" y1="120.391137" x2="13.4796343" y2="120.391137" id="Line-48" transform="translate(1.106376, 120.391137) rotate(38.456881) translate(-1.106376, -120.391137) "></line>
                            <line x1="44.8004996" y1="51.53518" x2="69.5470171" y2="51.53518" id="Line-49" transform="translate(57.173758, 51.535180) rotate(38.456881) translate(-57.173758, -51.535180) "></line>
                            <line x1="72.8043336" y1="18.7925992" x2="101.854596" y2="18.7925992" id="Line-50" transform="translate(87.329465, 18.792599) rotate(38.456881) translate(-87.329465, -18.792599) "></line>
                            <line x1="42.1584097" y1="21.7837152" x2="66.9049272" y2="21.7837152" id="Line-51" transform="translate(54.531668, 21.783715) rotate(38.456881) translate(-54.531668, -21.783715) "></line>
                            <line x1="82.2885441" y1="-36.6712039" x2="91.9719637" y2="-36.6712039" id="Line-54" transform="translate(87.130254, -36.671204) rotate(38.456881) translate(-87.130254, 36.671204) "></line>
                            <line x1="95.3841828" y1="4.6548329" x2="184.693325" y2="4.6548329" id="Line-55" transform="translate(140.038754, 4.654833) rotate(38.456881) translate(-140.038754, -4.654833) "></line>
                            <line x1="14.5456168" y1="56.5498284" x2="39.2921343" y2="56.5498284" id="Line-52" transform="translate(26.918876, 56.549828) rotate(38.456881) translate(-26.918876, -56.549828) "></line>
                            <line x1="68.2754997" y1="-7.4299487" x2="113.464795" y2="-7.4299487" id="Line-53" transform="translate(90.870147, -7.429949) rotate(38.456881) translate(-90.870147, 7.429949) "></line>
                            <line x1="122.565672" y1="28.0971451" x2="145.16032" y2="28.0971451" id="Line-56" transform="translate(133.862996, 28.097145) rotate(38.456881) translate(-133.862996, -28.097145) "></line>
                            <line x1="78.2427849" y1="86.2145825" x2="123.43208" y2="86.2145825" id="Line-57" transform="translate(100.837433, 86.214583) rotate(38.456881) translate(-100.837433, -86.214583) "></line>
                            <line x1="122.13634" y1="65.7673169" x2="167.325635" y2="65.7673169" id="Line-58" transform="translate(144.730987, 65.767317) rotate(38.456881) translate(-144.730987, -65.767317) "></line>
                            <line x1="176.193864" y1="97.9152365" x2="197.712575" y2="97.9152365" id="Line-60" transform="translate(186.953219, 97.915236) rotate(38.456881) translate(-186.953219, -97.915236) "></line>
                            <line x1="107.551975" y1="192.658288" x2="146.285654" y2="192.658288" id="Line-64" transform="translate(126.918814, 192.658288) rotate(38.456881) translate(-126.918814, -192.658288) "></line>
                            <line x1="56.2667107" y1="183.527083" x2="101.456006" y2="183.527083" id="Line-65" transform="translate(78.861358, 183.527083) rotate(38.456881) translate(-78.861358, -183.527083) "></line>
                            <line x1="72.6860153" y1="158.988526" x2="96.3565998" y2="158.988526" id="Line-66" transform="translate(84.521308, 158.988526) rotate(38.456881) translate(-84.521308, -158.988526) "></line>
                            <line x1="171.857438" y1="66.8170919" x2="193.376149" y2="66.8170919" id="Line-62" transform="translate(182.616794, 66.817092) rotate(38.456881) translate(-182.616794, -66.817092) "></line>
                            <line x1="179.813026" y1="56.5940703" x2="229.306061" y2="56.5940703" id="Line-63" transform="translate(204.559543, 56.594070) rotate(38.456881) translate(-204.559543, -56.594070) "></line>
                            <line x1="206.961251" y1="93.4154113" x2="225.25216" y2="93.4154113" id="Line-61" transform="translate(216.106706, 93.415411) rotate(38.456881) translate(-216.106706, -93.415411) "></line>
                            <line x1="104.960328" y1="96.8654241" x2="193.187042" y2="96.8654241" id="Line-59" transform="translate(149.073685, 96.865424) rotate(38.456881) translate(-149.073685, -96.865424) "></line>
                        </g>
                    </g>
                </g>
            </g>
        </g>
    </g>
</svg>