<svg width="200" height="100" viewBox="0 0 299 145" fill="none" xmlns="http://www.w3.org/2000/svg">
<g filter="url(#filter0_f_5_15042)">
<rect x="26.3833" y="20" width="242.585" height="14.7" fill="#FF00EC"/>
<rect x="26.3833" y="110.3" width="242.585" height="14.7" fill="#FF00EC"/>
<rect x="266.232" y="114.5" width="85.0499" height="12.7676" transform="rotate(-90 266.232 114.5)" fill="#FF00EC"/>
<rect x="20" y="114.5" width="85.0499" height="12.7676" transform="rotate(-90 20 114.5)" fill="#FF00EC"/>
</g>
<g filter="url(#filter1_d_5_15042)">
<rect x="29.708" y="30.9502" width="239.585" height="83.0999" rx="8.5" stroke="white" stroke-width="3" shape-rendering="crispEdges"/>
</g>
<g filter="url(#filter2_d_5_15042)">
<rect x="28.208" y="29.4502" width="242.585" height="87.1499" rx="10" fill="url(#paint0_linear_5_15042)" shape-rendering="crispEdges"/>
<rect x="28.708" y="29.9502" width="241.585" height="86.1499" rx="9.5" stroke="white" shape-rendering="crispEdges"/>
</g>
<g filter="url(#filter3_d_5_15042)">
<path d="M104.833 67.25C103.7 67.25 102.708 67.0417 101.858 66.625C101.025 66.1917 100.375 65.575 99.908 64.775C99.458 63.9583 99.233 63.0083 99.233 61.925V53.825C99.233 52.725 99.458 51.775 99.908 50.975C100.375 50.175 101.025 49.5667 101.858 49.15C102.708 48.7167 103.7 48.5 104.833 48.5C105.966 48.5 106.95 48.7167 107.783 49.15C108.616 49.5833 109.258 50.2 109.708 51C110.175 51.7833 110.408 52.725 110.408 53.825H107.708C107.708 52.875 107.458 52.15 106.958 51.65C106.458 51.15 105.75 50.9 104.833 50.9C103.916 50.9 103.2 51.15 102.683 51.65C102.183 52.15 101.933 52.8667 101.933 53.8V61.925C101.933 62.8583 102.183 63.5833 102.683 64.1C103.2 64.6 103.916 64.85 104.833 64.85C105.75 64.85 106.458 64.6 106.958 64.1C107.458 63.5833 107.708 62.8583 107.708 61.925H110.408C110.408 63.0083 110.175 63.95 109.708 64.75C109.258 65.55 108.616 66.1667 107.783 66.6C106.95 67.0333 105.966 67.25 104.833 67.25ZM119.723 67.25C118.59 67.25 117.607 67.0417 116.773 66.625C115.957 66.1917 115.323 65.575 114.873 64.775C114.44 63.9583 114.223 63.0083 114.223 61.925V53.825C114.223 52.725 114.44 51.775 114.873 50.975C115.323 50.175 115.957 49.5667 116.773 49.15C117.607 48.7167 118.59 48.5 119.723 48.5C120.857 48.5 121.832 48.7167 122.648 49.15C123.482 49.5667 124.115 50.175 124.548 50.975C124.998 51.775 125.223 52.7167 125.223 53.8V61.925C125.223 63.0083 124.998 63.9583 124.548 64.775C124.115 65.575 123.482 66.1917 122.648 66.625C121.832 67.0417 120.857 67.25 119.723 67.25ZM119.723 64.85C120.64 64.85 121.332 64.6 121.798 64.1C122.282 63.5833 122.523 62.8583 122.523 61.925V53.825C122.523 52.875 122.282 52.15 121.798 51.65C121.332 51.15 120.64 50.9 119.723 50.9C118.823 50.9 118.132 51.15 117.648 51.65C117.165 52.15 116.923 52.875 116.923 53.825V61.925C116.923 62.8583 117.165 63.5833 117.648 64.1C118.132 64.6 118.823 64.85 119.723 64.85ZM129.238 67V48.75H132.638L137.963 63.925C137.93 63.4417 137.888 62.8667 137.838 62.2C137.788 61.5333 137.747 60.8417 137.713 60.125C137.697 59.4083 137.688 58.7583 137.688 58.175V48.75H140.188V67H136.788L131.488 51.825C131.522 52.2583 131.555 52.8 131.588 53.45C131.638 54.1 131.672 54.775 131.688 55.475C131.722 56.175 131.738 56.825 131.738 57.425V67H129.238ZM144.229 67V48.75H147.629L152.954 63.925C152.92 63.4417 152.879 62.8667 152.829 62.2C152.779 61.5333 152.737 60.8417 152.704 60.125C152.687 59.4083 152.679 58.7583 152.679 58.175V48.75H155.179V67H151.779L146.479 51.825C146.512 52.2583 146.545 52.8 146.579 53.45C146.629 54.1 146.662 54.775 146.679 55.475C146.712 56.175 146.729 56.825 146.729 57.425V67H144.229ZM159.544 67V48.75H170.269V51.15H162.194V56.325H169.394V58.7H162.194V64.6H170.269V67H159.544ZM179.784 67.25C178.651 67.25 177.659 67.0417 176.809 66.625C175.976 66.1917 175.326 65.575 174.859 64.775C174.409 63.9583 174.184 63.0083 174.184 61.925V53.825C174.184 52.725 174.409 51.775 174.859 50.975C175.326 50.175 175.976 49.5667 176.809 49.15C177.659 48.7167 178.651 48.5 179.784 48.5C180.918 48.5 181.901 48.7167 182.734 49.15C183.568 49.5833 184.209 50.2 184.659 51C185.126 51.7833 185.359 52.725 185.359 53.825H182.659C182.659 52.875 182.409 52.15 181.909 51.65C181.409 51.15 180.701 50.9 179.784 50.9C178.868 50.9 178.151 51.15 177.634 51.65C177.134 52.15 176.884 52.8667 176.884 53.8V61.925C176.884 62.8583 177.134 63.5833 177.634 64.1C178.151 64.6 178.868 64.85 179.784 64.85C180.701 64.85 181.409 64.6 181.909 64.1C182.409 63.5833 182.659 62.8583 182.659 61.925H185.359C185.359 63.0083 185.126 63.95 184.659 64.75C184.209 65.55 183.568 66.1667 182.734 66.6C181.901 67.0333 180.918 67.25 179.784 67.25ZM193.324 67V51.225H188.449V48.725H200.899V51.225H196.024V67H193.324ZM98.734 97L96.364 75.1H99.274L100.744 90.82C100.784 91.22 100.814 91.66 100.834 92.14C100.874 92.62 100.904 93.09 100.924 93.55C100.964 94.01 100.984 94.41 100.984 94.75C101.024 94.41 101.064 94.01 101.104 93.55C101.144 93.09 101.184 92.62 101.224 92.14C101.284 91.66 101.344 91.22 101.404 90.82L103.294 75.1H106.294L108.064 90.82C108.104 91.22 108.144 91.66 108.184 92.14C108.244 92.62 108.304 93.09 108.364 93.55C108.424 94.01 108.464 94.41 108.484 94.75C108.504 94.41 108.524 94.01 108.544 93.55C108.584 93.09 108.624 92.62 108.664 92.14C108.704 91.66 108.744 91.22 108.784 90.82L110.284 75.1H113.104L110.644 97H106.894L105.124 81.07C105.084 80.65 105.044 80.21 105.004 79.75C104.964 79.27 104.924 78.81 104.884 78.37C104.844 77.91 104.804 77.53 104.764 77.23C104.744 77.53 104.714 77.91 104.674 78.37C104.634 78.81 104.594 79.27 104.554 79.75C104.514 80.21 104.464 80.65 104.404 81.07L102.514 97H98.734ZM115.012 97L120.592 75.1H124.852L130.432 97H127.162L125.842 91.45H119.632L118.312 97H115.012ZM120.232 88.78H125.212L123.712 82.45C123.452 81.33 123.232 80.36 123.052 79.54C122.892 78.7 122.782 78.13 122.722 77.83C122.662 78.13 122.552 78.7 122.392 79.54C122.232 80.36 122.012 81.32 121.732 82.42L120.232 88.78ZM134.981 97V75.1H138.221V94.03H147.791V97H134.981ZM152.969 97V75.1H156.209V94.03H165.779V97H152.969ZM170.507 97V75.1H183.377V77.98H173.687V84.19H182.327V87.04H173.687V94.12H183.377V97H170.507ZM193.055 97V78.07H187.205V75.07H202.145V78.07H196.295V97H193.055Z" fill="white"/>
<path d="M101.858 66.625L101.72 66.8912L101.726 66.8944L101.858 66.625ZM99.908 64.775L99.6452 64.9198L99.6489 64.9262L99.908 64.775ZM99.908 50.975L99.6489 50.8238L99.6466 50.8279L99.908 50.975ZM101.858 49.15L101.992 49.4183L101.994 49.4173L101.858 49.15ZM107.783 49.15L107.921 48.8838L107.783 49.15ZM109.708 51L109.446 51.1471L109.45 51.1535L109.708 51ZM110.408 53.825V54.125H110.708V53.825H110.408ZM107.708 53.825H107.408V54.125H107.708V53.825ZM106.958 51.65L106.746 51.8621L106.958 51.65ZM102.683 51.65L102.474 51.4344L102.471 51.4379L102.683 51.65ZM102.683 64.1L102.467 64.3087L102.474 64.3156L102.683 64.1ZM106.958 64.1L107.17 64.3122L107.174 64.3086L106.958 64.1ZM107.708 61.925V61.625H107.408V61.925H107.708ZM110.408 61.925H110.708V61.625H110.408V61.925ZM109.708 64.75L109.449 64.5988L109.447 64.6029L109.708 64.75ZM107.783 66.6L107.921 66.8662L107.783 66.6ZM104.833 66.95C103.737 66.95 102.792 66.7486 101.99 66.3556L101.726 66.8944C102.624 67.3348 103.663 67.55 104.833 67.55V66.95ZM101.996 66.3588C101.213 65.9513 100.605 65.3741 100.167 64.6238L99.6489 64.9262C100.145 65.7759 100.837 66.4321 101.72 66.8912L101.996 66.3588ZM100.171 64.6302C99.7489 63.8646 99.533 62.966 99.533 61.925H98.933C98.933 63.0507 99.1671 64.0521 99.6453 64.9198L100.171 64.6302ZM99.533 61.925V53.825H98.933V61.925H99.533ZM99.533 53.825C99.533 52.7663 99.7493 51.869 100.169 51.1221L99.6466 50.8279C99.1667 51.681 98.933 52.6837 98.933 53.825H99.533ZM100.167 51.1262C100.604 50.3769 101.211 49.8091 101.992 49.4183L101.724 48.8817C100.839 49.3243 100.145 49.9731 99.6489 50.8238L100.167 51.1262ZM101.994 49.4173C102.795 49.0091 103.738 48.8 104.833 48.8V48.2C103.661 48.2 102.621 48.4242 101.722 48.8827L101.994 49.4173ZM104.833 48.8C105.928 48.8 106.862 49.0092 107.645 49.4162L107.921 48.8838C107.037 48.4241 106.005 48.2 104.833 48.2V48.8ZM107.645 49.4162C108.428 49.8233 109.026 50.3991 109.447 51.1471L109.969 50.8529C109.49 50.0009 108.805 49.3434 107.921 48.8838L107.645 49.4162ZM109.45 51.1535C109.884 51.8817 110.108 52.7679 110.108 53.825H110.708C110.708 52.6821 110.465 51.685 109.966 50.8465L109.45 51.1535ZM110.408 53.525H107.708V54.125H110.408V53.525ZM108.008 53.825C108.008 52.8236 107.744 52.0113 107.17 51.4379L106.746 51.8621C107.172 52.2887 107.408 52.9264 107.408 53.825H108.008ZM107.17 51.4379C106.599 50.8663 105.805 50.6 104.833 50.6V51.2C105.695 51.2 106.317 51.4337 106.746 51.8621L107.17 51.4379ZM104.833 50.6C103.861 50.6 103.061 50.8665 102.474 51.4344L102.892 51.8656C103.338 51.4335 103.972 51.2 104.833 51.2V50.6ZM102.471 51.4379C101.898 52.0104 101.633 52.8135 101.633 53.8H102.233C102.233 52.9198 102.468 52.2896 102.895 51.8621L102.471 51.4379ZM101.633 53.8V61.925H102.233V53.8H101.633ZM101.633 61.925C101.633 62.9121 101.899 63.7208 102.467 64.3086L102.899 63.8914C102.467 63.4459 102.233 62.8046 102.233 61.925H101.633ZM102.474 64.3156C103.061 64.8835 103.861 65.15 104.833 65.15V64.55C103.972 64.55 103.338 64.3165 102.892 63.8844L102.474 64.3156ZM104.833 65.15C105.805 65.15 106.599 64.8837 107.17 64.3121L106.746 63.8879C106.317 64.3163 105.695 64.55 104.833 64.55V65.15ZM107.174 64.3086C107.742 63.7208 108.008 62.9121 108.008 61.925H107.408C107.408 62.8046 107.174 63.4459 106.742 63.8914L107.174 64.3086ZM107.708 62.225H110.408V61.625H107.708V62.225ZM110.108 61.925C110.108 62.9643 109.885 63.852 109.449 64.5988L109.967 64.9012C110.465 64.048 110.708 63.0523 110.708 61.925H110.108ZM109.447 64.6029C109.026 65.3509 108.428 65.9267 107.645 66.3338L107.921 66.8662C108.805 66.4066 109.49 65.7491 109.969 64.8971L109.447 64.6029ZM107.645 66.3338C106.862 66.7408 105.928 66.95 104.833 66.95V67.55C106.005 67.55 107.037 67.3259 107.921 66.8662L107.645 66.3338ZM116.773 66.625L116.633 66.8901L116.639 66.8933L116.773 66.625ZM114.873 64.775L114.608 64.9157L114.612 64.9221L114.873 64.775ZM114.873 50.975L114.612 50.8279L114.609 50.8321L114.873 50.975ZM116.773 49.15L116.91 49.4172L116.912 49.4162L116.773 49.15ZM122.648 49.15L122.508 49.4151L122.514 49.4183L122.648 49.15ZM124.548 50.975L124.284 51.1179L124.287 51.1221L124.548 50.975ZM124.548 64.775L124.285 64.6302L124.284 64.6321L124.548 64.775ZM122.648 66.625L122.785 66.8922L122.787 66.8912L122.648 66.625ZM121.798 64.1L121.579 63.8951L121.579 63.8953L121.798 64.1ZM121.798 51.65L121.579 51.8547L121.583 51.8585L121.798 51.65ZM117.648 51.65L117.864 51.8585L117.648 51.65ZM117.648 64.1L117.429 64.305L117.433 64.3085L117.648 64.1ZM119.723 66.95C118.627 66.95 117.691 66.7485 116.907 66.3567L116.639 66.8933C117.522 67.3349 118.553 67.55 119.723 67.55V66.95ZM116.914 66.36C116.148 65.9534 115.556 65.3775 115.135 64.6279L114.612 64.9221C115.09 65.7725 115.766 66.43 116.633 66.89L116.914 66.36ZM115.138 64.6344C114.732 63.8679 114.523 62.9677 114.523 61.925H113.923C113.923 63.0489 114.148 64.0488 114.608 64.9156L115.138 64.6344ZM114.523 61.925V53.825H113.923V61.925H114.523ZM114.523 53.825C114.523 52.7645 114.732 51.8657 115.137 51.1179L114.609 50.8321C114.148 51.6843 113.923 52.6855 113.923 53.825H114.523ZM115.135 51.1221C115.556 50.3735 116.146 49.807 116.91 49.4172L116.637 48.8828C115.768 49.3263 115.091 49.9765 114.612 50.8279L115.135 51.1221ZM116.912 49.4162C117.694 49.0092 118.628 48.8 119.723 48.8V48.2C118.552 48.2 117.519 48.4241 116.635 48.8838L116.912 49.4162ZM119.723 48.8C120.819 48.8 121.743 49.0093 122.508 49.415L122.789 48.885C121.92 48.4241 120.895 48.2 119.723 48.2V48.8ZM122.514 49.4183C123.294 49.8082 123.881 50.3734 124.284 51.1179L124.812 50.8321C124.349 49.9766 123.669 49.3252 122.782 48.8817L122.514 49.4183ZM124.287 51.1221C124.707 51.8697 124.923 52.7589 124.923 53.8H125.523C125.523 52.6745 125.289 51.6803 124.81 50.8279L124.287 51.1221ZM124.923 53.8V61.925H125.523V53.8H124.923ZM124.923 61.925C124.923 62.966 124.707 63.8646 124.286 64.6302L124.811 64.9198C125.289 64.0521 125.523 63.0507 125.523 61.925H124.923ZM124.284 64.6321C123.881 65.3776 123.292 65.9522 122.51 66.3588L122.787 66.8912C123.671 66.4311 124.349 65.7724 124.812 64.9179L124.284 64.6321ZM122.512 66.3578C121.746 66.7484 120.82 66.95 119.723 66.95V67.55C120.893 67.55 121.917 67.3349 122.785 66.8922L122.512 66.3578ZM119.723 65.15C120.694 65.15 121.477 64.8841 122.018 64.3047L121.579 63.8953C121.186 64.3159 120.586 64.55 119.723 64.55V65.15ZM122.017 64.3049C122.568 63.7168 122.823 62.9095 122.823 61.925H122.223C122.223 62.8072 121.996 63.4498 121.579 63.8951L122.017 64.3049ZM122.823 61.925V53.825H122.223V61.925H122.823ZM122.823 53.825C122.823 52.8262 122.569 52.0153 122.014 51.4415L121.583 51.8585C121.995 52.2847 122.223 52.9238 122.223 53.825H122.823ZM122.018 51.4453C121.477 50.8659 120.694 50.6 119.723 50.6V51.2C120.586 51.2 121.186 51.4341 121.579 51.8547L122.018 51.4453ZM119.723 50.6C118.767 50.6 117.988 50.8671 117.433 51.4415L117.864 51.8585C118.275 51.4329 118.879 51.2 119.723 51.2V50.6ZM117.433 51.4415C116.878 52.0153 116.623 52.8262 116.623 53.825H117.223C117.223 52.9238 117.452 52.2847 117.864 51.8585L117.433 51.4415ZM116.623 53.825V61.925H117.223V53.825H116.623ZM116.623 61.925C116.623 62.9095 116.879 63.7168 117.429 64.3049L117.867 63.8951C117.451 63.4498 117.223 62.8072 117.223 61.925H116.623ZM117.433 64.3085C117.988 64.8829 118.767 65.15 119.723 65.15V64.55C118.879 64.55 118.275 64.3171 117.864 63.8915L117.433 64.3085ZM129.238 67H128.938V67.3H129.238V67ZM129.238 48.75V48.45H128.938V48.75H129.238ZM132.638 48.75L132.922 48.6507L132.851 48.45H132.638V48.75ZM137.963 63.925L137.68 64.0243L138.263 63.9044L137.963 63.925ZM137.838 62.2L137.539 62.2224L137.838 62.2ZM137.713 60.125L137.413 60.132L137.414 60.1389L137.713 60.125ZM137.688 48.75V48.45H137.388V48.75H137.688ZM140.188 48.75H140.488V48.45H140.188V48.75ZM140.188 67V67.3H140.488V67H140.188ZM136.788 67L136.505 67.0989L136.576 67.3H136.788V67ZM131.488 51.825L131.772 51.7261L131.189 51.848L131.488 51.825ZM131.588 53.45L131.289 53.4654L131.289 53.473L131.588 53.45ZM131.688 55.475L131.388 55.4821L131.389 55.4893L131.688 55.475ZM131.738 67V67.3H132.038V67H131.738ZM129.538 67V48.75H128.938V67H129.538ZM129.238 49.05H132.638V48.45H129.238V49.05ZM132.355 48.8493L137.68 64.0243L138.247 63.8257L132.922 48.6507L132.355 48.8493ZM138.263 63.9044C138.229 63.4202 138.188 62.8446 138.138 62.1776L137.539 62.2224C137.589 62.8887 137.631 63.4631 137.664 63.9456L138.263 63.9044ZM138.138 62.1776C138.088 61.5139 138.046 60.8251 138.013 60.1111L137.414 60.1389C137.447 60.8582 137.489 61.5527 137.539 62.2224L138.138 62.1776ZM138.013 60.118C137.997 59.4032 137.988 58.7556 137.988 58.175H137.388C137.388 58.7611 137.397 59.4135 137.414 60.132L138.013 60.118ZM137.988 58.175V48.75H137.388V58.175H137.988ZM137.688 49.05H140.188V48.45H137.688V49.05ZM139.888 48.75V67H140.488V48.75H139.888ZM140.188 66.7H136.788V67.3H140.188V66.7ZM137.072 66.9011L131.772 51.7261L131.205 51.9239L136.505 67.0989L137.072 66.9011ZM131.189 51.848C131.222 52.2779 131.256 52.8168 131.289 53.4654L131.888 53.4346C131.855 52.7832 131.821 52.2388 131.788 51.802L131.189 51.848ZM131.289 53.473C131.339 54.1174 131.372 54.7871 131.389 55.4821L131.988 55.4679C131.972 54.7629 131.938 54.0826 131.888 53.427L131.289 53.473ZM131.389 55.4893C131.422 56.1853 131.438 56.8305 131.438 57.425H132.038C132.038 56.8195 132.022 56.1647 131.988 55.4607L131.389 55.4893ZM131.438 57.425V67H132.038V57.425H131.438ZM131.738 66.7H129.238V67.3H131.738V66.7ZM144.229 67H143.929V67.3H144.229V67ZM144.229 48.75V48.45H143.929V48.75H144.229ZM147.629 48.75L147.912 48.6507L147.841 48.45H147.629V48.75ZM152.954 63.925L152.671 64.0243L153.253 63.9044L152.954 63.925ZM152.829 62.2L152.53 62.2224L152.829 62.2ZM152.704 60.125L152.404 60.132L152.404 60.1389L152.704 60.125ZM152.679 48.75V48.45H152.379V48.75H152.679ZM155.179 48.75H155.479V48.45H155.179V48.75ZM155.179 67V67.3H155.479V67H155.179ZM151.779 67L151.496 67.0989L151.566 67.3H151.779V67ZM146.479 51.825L146.762 51.7261L146.18 51.848L146.479 51.825ZM146.579 53.45L146.279 53.4654L146.28 53.473L146.579 53.45ZM146.679 55.475L146.379 55.4821L146.379 55.4893L146.679 55.475ZM146.729 67V67.3H147.029V67H146.729ZM144.529 67V48.75H143.929V67H144.529ZM144.229 49.05H147.629V48.45H144.229V49.05ZM147.346 48.8493L152.671 64.0243L153.237 63.8257L147.912 48.6507L147.346 48.8493ZM153.253 63.9044C153.22 63.4202 153.178 62.8446 153.128 62.1776L152.53 62.2224C152.58 62.8887 152.621 63.4631 152.654 63.9456L153.253 63.9044ZM153.128 62.1776C153.078 61.5139 153.037 60.8251 153.003 60.1111L152.404 60.1389C152.438 60.8582 152.479 61.5527 152.53 62.2224L153.128 62.1776ZM153.004 60.118C152.987 59.4032 152.979 58.7556 152.979 58.175H152.379C152.379 58.7611 152.387 59.4135 152.404 60.132L153.004 60.118ZM152.979 58.175V48.75H152.379V58.175H152.979ZM152.679 49.05H155.179V48.45H152.679V49.05ZM154.879 48.75V67H155.479V48.75H154.879ZM155.179 66.7H151.779V67.3H155.179V66.7ZM152.062 66.9011L146.762 51.7261L146.196 51.9239L151.496 67.0989L152.062 66.9011ZM146.18 51.848C146.213 52.2779 146.246 52.8168 146.279 53.4654L146.878 53.4346C146.845 52.7832 146.811 52.2388 146.778 51.802L146.18 51.848ZM146.28 53.473C146.329 54.1174 146.362 54.7871 146.379 55.4821L146.979 55.4679C146.962 54.7629 146.928 54.0826 146.878 53.427L146.28 53.473ZM146.379 55.4893C146.412 56.1853 146.429 56.8305 146.429 57.425H147.029C147.029 56.8195 147.012 56.1647 146.978 55.4607L146.379 55.4893ZM146.429 57.425V67H147.029V57.425H146.429ZM146.729 66.7H144.229V67.3H146.729V66.7ZM159.544 67H159.244V67.3H159.544V67ZM159.544 48.75V48.45H159.244V48.75H159.544ZM170.269 48.75H170.569V48.45H170.269V48.75ZM170.269 51.15V51.45H170.569V51.15H170.269ZM162.194 51.15V50.85H161.894V51.15H162.194ZM162.194 56.325H161.894V56.625H162.194V56.325ZM169.394 56.325H169.694V56.025H169.394V56.325ZM169.394 58.7V59H169.694V58.7H169.394ZM162.194 58.7V58.4H161.894V58.7H162.194ZM162.194 64.6H161.894V64.9H162.194V64.6ZM170.269 64.6H170.569V64.3H170.269V64.6ZM170.269 67V67.3H170.569V67H170.269ZM159.844 67V48.75H159.244V67H159.844ZM159.544 49.05H170.269V48.45H159.544V49.05ZM169.969 48.75V51.15H170.569V48.75H169.969ZM170.269 50.85H162.194V51.45H170.269V50.85ZM161.894 51.15V56.325H162.494V51.15H161.894ZM162.194 56.625H169.394V56.025H162.194V56.625ZM169.094 56.325V58.7H169.694V56.325H169.094ZM169.394 58.4H162.194V59H169.394V58.4ZM161.894 58.7V64.6H162.494V58.7H161.894ZM162.194 64.9H170.269V64.3H162.194V64.9ZM169.969 64.6V67H170.569V64.6H169.969ZM170.269 66.7H159.544V67.3H170.269V66.7ZM176.809 66.625L176.671 66.8912L176.677 66.8944L176.809 66.625ZM174.859 64.775L174.596 64.9198L174.6 64.9262L174.859 64.775ZM174.859 50.975L174.6 50.8238L174.598 50.8279L174.859 50.975ZM176.809 49.15L176.943 49.4183L176.945 49.4173L176.809 49.15ZM182.734 49.15L182.873 48.8838L182.734 49.15ZM184.659 51L184.398 51.1471L184.401 51.1535L184.659 51ZM185.359 53.825V54.125H185.659V53.825H185.359ZM182.659 53.825H182.359V54.125H182.659V53.825ZM181.909 51.65L181.697 51.8621L181.909 51.65ZM177.634 51.65L177.426 51.4344L177.422 51.4379L177.634 51.65ZM177.634 64.1L177.419 64.3087L177.426 64.3156L177.634 64.1ZM181.909 64.1L182.121 64.3122L182.125 64.3086L181.909 64.1ZM182.659 61.925V61.625H182.359V61.925H182.659ZM185.359 61.925H185.659V61.625H185.359V61.925ZM184.659 64.75L184.4 64.5988L184.398 64.6029L184.659 64.75ZM182.734 66.6L182.873 66.8662L182.734 66.6ZM179.784 66.95C178.688 66.95 177.743 66.7486 176.941 66.3556L176.677 66.8944C177.576 67.3348 178.614 67.55 179.784 67.55V66.95ZM176.948 66.3588C176.164 65.9513 175.556 65.3741 175.118 64.6238L174.6 64.9262C175.096 65.7759 175.788 66.4321 176.671 66.8912L176.948 66.3588ZM175.122 64.6302C174.7 63.8646 174.484 62.966 174.484 61.925H173.884C173.884 63.0507 174.118 64.0521 174.596 64.9198L175.122 64.6302ZM174.484 61.925V53.825H173.884V61.925H174.484ZM174.484 53.825C174.484 52.7663 174.701 51.869 175.121 51.1221L174.598 50.8279C174.118 51.681 173.884 52.6837 173.884 53.825H174.484ZM175.118 51.1262C175.555 50.3769 176.162 49.8091 176.943 49.4183L176.675 48.8817C175.79 49.3243 175.096 49.9731 174.6 50.8238L175.118 51.1262ZM176.945 49.4173C177.746 49.0091 178.689 48.8 179.784 48.8V48.2C178.612 48.2 177.572 48.4242 176.673 48.8827L176.945 49.4173ZM179.784 48.8C180.879 48.8 181.813 49.0092 182.596 49.4162L182.873 48.8838C181.989 48.4241 180.956 48.2 179.784 48.2V48.8ZM182.596 49.4162C183.379 49.8233 183.977 50.3991 184.398 51.1471L184.921 50.8529C184.441 50.0009 183.756 49.3434 182.873 48.8838L182.596 49.4162ZM184.401 51.1535C184.835 51.8817 185.059 52.7679 185.059 53.825H185.659C185.659 52.6821 185.416 51.685 184.917 50.8465L184.401 51.1535ZM185.359 53.525H182.659V54.125H185.359V53.525ZM182.959 53.825C182.959 52.8236 182.695 52.0113 182.121 51.4379L181.697 51.8621C182.124 52.2887 182.359 52.9264 182.359 53.825H182.959ZM182.121 51.4379C181.55 50.8663 180.756 50.6 179.784 50.6V51.2C180.646 51.2 181.269 51.4337 181.697 51.8621L182.121 51.4379ZM179.784 50.6C178.812 50.6 178.012 50.8665 177.426 51.4344L177.843 51.8656C178.289 51.4335 178.923 51.2 179.784 51.2V50.6ZM177.422 51.4379C176.85 52.0104 176.584 52.8135 176.584 53.8H177.184C177.184 52.9198 177.419 52.2896 177.846 51.8621L177.422 51.4379ZM176.584 53.8V61.925H177.184V53.8H176.584ZM176.584 61.925C176.584 62.9121 176.85 63.7208 177.419 64.3086L177.85 63.8914C177.419 63.4459 177.184 62.8046 177.184 61.925H176.584ZM177.426 64.3156C178.012 64.8835 178.812 65.15 179.784 65.15V64.55C178.923 64.55 178.289 64.3165 177.843 63.8844L177.426 64.3156ZM179.784 65.15C180.756 65.15 181.55 64.8837 182.121 64.3121L181.697 63.8879C181.269 64.3163 180.646 64.55 179.784 64.55V65.15ZM182.125 64.3086C182.694 63.7208 182.959 62.9121 182.959 61.925H182.359C182.359 62.8046 182.125 63.4459 181.694 63.8914L182.125 64.3086ZM182.659 62.225H185.359V61.625H182.659V62.225ZM185.059 61.925C185.059 62.9643 184.836 63.852 184.4 64.5988L184.918 64.9012C185.416 64.048 185.659 63.0523 185.659 61.925H185.059ZM184.398 64.6029C183.977 65.3509 183.379 65.9267 182.596 66.3338L182.873 66.8662C183.756 66.4066 184.441 65.7491 184.921 64.8971L184.398 64.6029ZM182.596 66.3338C181.813 66.7408 180.879 66.95 179.784 66.95V67.55C180.956 67.55 181.989 67.3259 182.873 66.8662L182.596 66.3338ZM193.324 67H193.024V67.3H193.324V67ZM193.324 51.225H193.624V50.925H193.324V51.225ZM188.449 51.225H188.149V51.525H188.449V51.225ZM188.449 48.725V48.425H188.149V48.725H188.449ZM200.899 48.725H201.199V48.425H200.899V48.725ZM200.899 51.225V51.525H201.199V51.225H200.899ZM196.024 51.225V50.925H195.724V51.225H196.024ZM196.024 67V67.3H196.324V67H196.024ZM193.624 67V51.225H193.024V67H193.624ZM193.324 50.925H188.449V51.525H193.324V50.925ZM188.749 51.225V48.725H188.149V51.225H188.749ZM188.449 49.025H200.899V48.425H188.449V49.025ZM200.599 48.725V51.225H201.199V48.725H200.599ZM200.899 50.925H196.024V51.525H200.899V50.925ZM195.724 51.225V67H196.324V51.225H195.724ZM196.024 66.7H193.324V67.3H196.024V66.7ZM98.734 97L98.4357 97.0323L98.4647 97.3H98.734V97ZM96.364 75.1V74.8H96.0298L96.0657 75.1323L96.364 75.1ZM99.274 75.1L99.5727 75.0721L99.5473 74.8H99.274V75.1ZM100.744 90.82L100.445 90.8479L100.445 90.8498L100.744 90.82ZM100.834 92.14L100.534 92.1525L100.535 92.1649L100.834 92.14ZM100.924 93.55L100.624 93.563L100.625 93.576L100.924 93.55ZM100.984 94.75H100.684L101.282 94.7851L100.984 94.75ZM101.104 93.55L101.403 93.576L101.104 93.55ZM101.224 92.14L100.926 92.1028L100.925 92.1151L101.224 92.14ZM101.404 90.82L101.701 90.8645L101.702 90.8558L101.404 90.82ZM103.294 75.1V74.8H103.028L102.996 75.0642L103.294 75.1ZM106.294 75.1L106.592 75.0664L106.562 74.8H106.294V75.1ZM108.064 90.82L108.363 90.7901L108.362 90.7864L108.064 90.82ZM108.184 92.14L107.885 92.1649L107.886 92.1772L108.184 92.14ZM108.364 93.55L108.661 93.5112V93.5112L108.364 93.55ZM108.484 94.75L108.185 94.7676H108.783L108.484 94.75ZM108.544 93.55L108.245 93.524L108.244 93.537L108.544 93.55ZM108.664 92.14L108.963 92.1649L108.664 92.14ZM108.784 90.82L109.083 90.8498L109.083 90.8485L108.784 90.82ZM110.284 75.1V74.8H110.011L109.985 75.0715L110.284 75.1ZM113.104 75.1L113.402 75.1335L113.44 74.8H113.104V75.1ZM110.644 97V97.3H110.912L110.942 97.0335L110.644 97ZM106.894 97L106.596 97.0331L106.625 97.3H106.894V97ZM105.124 81.07L104.825 81.0984L104.826 81.1031L105.124 81.07ZM105.004 79.75L104.705 79.7749L104.705 79.776L105.004 79.75ZM104.884 78.37L104.585 78.396L104.585 78.3972L104.884 78.37ZM104.764 77.23L105.061 77.1903L104.465 77.21L104.764 77.23ZM104.674 78.37L104.973 78.3972L104.973 78.396L104.674 78.37ZM104.554 79.75L104.853 79.776L104.853 79.7749L104.554 79.75ZM104.404 81.07L104.107 81.0276L104.106 81.0347L104.404 81.07ZM102.514 97V97.3H102.781L102.812 97.0353L102.514 97ZM99.0323 96.9677L96.6623 75.0677L96.0657 75.1323L98.4357 97.0323L99.0323 96.9677ZM96.364 75.4H99.274V74.8H96.364V75.4ZM98.9753 75.1279L100.445 90.8479L101.043 90.7921L99.5727 75.0721L98.9753 75.1279ZM100.445 90.8498C100.485 91.2431 100.514 91.6772 100.534 92.1525L101.134 92.1275C101.114 91.6428 101.083 91.1969 101.043 90.7901L100.445 90.8498ZM100.535 92.1649C100.575 92.6411 100.604 93.1072 100.624 93.563L101.224 93.537C101.204 93.0728 101.173 92.5989 101.133 92.1151L100.535 92.1649ZM100.625 93.576C100.665 94.0302 100.684 94.4211 100.684 94.75H101.284C101.284 94.3989 101.263 93.9898 101.223 93.524L100.625 93.576ZM101.282 94.7851C101.322 94.4412 101.363 94.038 101.403 93.576L100.805 93.524C100.765 93.9819 100.726 94.3788 100.686 94.7149L101.282 94.7851ZM101.403 93.576C101.443 93.1156 101.483 92.6453 101.523 92.1649L100.925 92.1151C100.885 92.5947 100.845 93.0644 100.805 93.524L101.403 93.576ZM101.522 92.1772C101.581 91.6992 101.641 91.2617 101.701 90.8645L101.107 90.7755C101.047 91.1783 100.987 91.6208 100.926 92.1028L101.522 92.1772ZM101.702 90.8558L103.592 75.1358L102.996 75.0642L101.106 90.7842L101.702 90.8558ZM103.294 75.4H106.294V74.8H103.294V75.4ZM105.996 75.1336L107.766 90.8536L108.362 90.7864L106.592 75.0664L105.996 75.1336ZM107.765 90.8498C107.805 91.2479 107.845 91.6862 107.885 92.1649L108.483 92.1151C108.443 91.6338 108.403 91.1921 108.363 90.7901L107.765 90.8498ZM107.886 92.1772C107.946 92.6577 108.006 93.1283 108.067 93.5888L108.661 93.5112C108.602 93.0518 108.542 92.5823 108.482 92.1028L107.886 92.1772ZM108.067 93.5888C108.126 94.0441 108.165 94.4367 108.185 94.7676L108.783 94.7324C108.763 94.3833 108.722 93.9759 108.661 93.5112L108.067 93.5888ZM108.783 94.7676C108.804 94.4257 108.824 94.0241 108.844 93.563L108.244 93.537C108.224 93.9959 108.204 94.3943 108.185 94.7324L108.783 94.7676ZM108.843 93.576C108.883 93.1156 108.923 92.6453 108.963 92.1649L108.365 92.1151C108.325 92.5947 108.285 93.0644 108.245 93.524L108.843 93.576ZM108.963 92.1649C109.003 91.6862 109.043 91.2479 109.083 90.8498L108.485 90.7901C108.445 91.1921 108.405 91.6338 108.365 92.1151L108.963 92.1649ZM109.083 90.8485L110.583 75.1285L109.985 75.0715L108.485 90.7915L109.083 90.8485ZM110.284 75.4H113.104V74.8H110.284V75.4ZM112.806 75.0665L110.346 96.9665L110.942 97.0335L113.402 75.1335L112.806 75.0665ZM110.644 96.7H106.894V97.3H110.644V96.7ZM107.192 96.9669L105.422 81.0369L104.826 81.1031L106.596 97.0331L107.192 96.9669ZM105.423 81.0416C105.383 80.6224 105.343 80.1833 105.303 79.724L104.705 79.776C104.745 80.2367 104.785 80.6776 104.825 81.0984L105.423 81.0416ZM105.303 79.7251C105.263 79.2444 105.223 78.7836 105.183 78.3428L104.585 78.3972C104.625 78.8363 104.665 79.2956 104.705 79.7749L105.303 79.7251ZM105.183 78.344C105.143 77.8815 105.102 77.4966 105.061 77.1903L104.467 77.2696C104.506 77.5634 104.545 77.9385 104.585 78.396L105.183 78.344ZM104.465 77.21C104.445 77.5073 104.415 77.8851 104.375 78.344L104.973 78.396C105.013 77.9349 105.043 77.5527 105.063 77.25L104.465 77.21ZM104.375 78.3428C104.335 78.7836 104.295 79.2444 104.255 79.7251L104.853 79.7749C104.893 79.2956 104.933 78.8363 104.973 78.3972L104.375 78.3428ZM104.255 79.724C104.216 80.179 104.166 80.6135 104.107 81.0276L104.701 81.1124C104.762 80.6865 104.812 80.241 104.853 79.776L104.255 79.724ZM104.106 81.0347L102.216 96.9647L102.812 97.0353L104.702 81.1053L104.106 81.0347ZM102.514 96.7H98.734V97.3H102.514V96.7ZM115.012 97L114.722 96.9259L114.626 97.3H115.012V97ZM120.592 75.1V74.8H120.359L120.302 75.0259L120.592 75.1ZM124.852 75.1L125.143 75.0259L125.085 74.8H124.852V75.1ZM130.432 97V97.3H130.818L130.723 96.9259L130.432 97ZM127.162 97L126.87 97.0694L126.925 97.3H127.162V97ZM125.842 91.45L126.134 91.3806L126.079 91.15H125.842V91.45ZM119.632 91.45V91.15H119.395L119.34 91.3806L119.632 91.45ZM118.312 97V97.3H118.549L118.604 97.0694L118.312 97ZM120.232 88.78L119.94 88.7111L119.853 89.08H120.232V88.78ZM125.212 88.78V89.08H125.592L125.504 88.7108L125.212 88.78ZM123.712 82.45L123.42 82.5178L123.42 82.5192L123.712 82.45ZM123.052 79.54L122.757 79.5962L122.759 79.6043L123.052 79.54ZM122.722 77.83L123.016 77.7712H122.428L122.722 77.83ZM122.392 79.54L122.687 79.5975L122.687 79.5961L122.392 79.54ZM121.732 82.42L121.442 82.346L121.44 82.3511L121.732 82.42ZM115.303 97.0741L120.883 75.1741L120.302 75.0259L114.722 96.9259L115.303 97.0741ZM120.592 75.4H124.852V74.8H120.592V75.4ZM124.562 75.1741L130.142 97.0741L130.723 96.9259L125.143 75.0259L124.562 75.1741ZM130.432 96.7H127.162V97.3H130.432V96.7ZM127.454 96.9306L126.134 91.3806L125.55 91.5194L126.87 97.0694L127.454 96.9306ZM125.842 91.15H119.632V91.75H125.842V91.15ZM119.34 91.3806L118.02 96.9306L118.604 97.0694L119.924 91.5194L119.34 91.3806ZM118.312 96.7H115.012V97.3H118.312V96.7ZM120.232 89.08H125.212V88.48H120.232V89.08ZM125.504 88.7108L124.004 82.3808L123.42 82.5192L124.92 88.8492L125.504 88.7108ZM124.005 82.3822C123.745 81.2629 123.525 80.2942 123.345 79.4757L122.759 79.6043C122.94 80.4258 123.16 81.3971 123.42 82.5178L124.005 82.3822ZM123.347 79.4839C123.187 78.644 123.077 78.0727 123.016 77.7712L122.428 77.8888C122.488 78.1873 122.598 78.756 122.758 79.5961L123.347 79.4839ZM122.428 77.7712C122.368 78.0727 122.258 78.644 122.098 79.4839L122.687 79.5961C122.847 78.756 122.957 78.1873 123.016 77.8888L122.428 77.7712ZM122.098 79.4825C121.939 80.2954 121.721 81.2497 121.442 82.346L122.023 82.494C122.304 81.3903 122.525 80.4246 122.687 79.5975L122.098 79.4825ZM121.44 82.3511L119.94 88.7111L120.524 88.8489L122.024 82.4889L121.44 82.3511ZM134.981 97H134.681V97.3H134.981V97ZM134.981 75.1V74.8H134.681V75.1H134.981ZM138.221 75.1H138.521V74.8H138.221V75.1ZM138.221 94.03H137.921V94.33H138.221V94.03ZM147.791 94.03H148.091V93.73H147.791V94.03ZM147.791 97V97.3H148.091V97H147.791ZM135.281 97V75.1H134.681V97H135.281ZM134.981 75.4H138.221V74.8H134.981V75.4ZM137.921 75.1V94.03H138.521V75.1H137.921ZM138.221 94.33H147.791V93.73H138.221V94.33ZM147.491 94.03V97H148.091V94.03H147.491ZM147.791 96.7H134.981V97.3H147.791V96.7ZM152.969 97H152.669V97.3H152.969V97ZM152.969 75.1V74.8H152.669V75.1H152.969ZM156.209 75.1H156.509V74.8H156.209V75.1ZM156.209 94.03H155.909V94.33H156.209V94.03ZM165.779 94.03H166.079V93.73H165.779V94.03ZM165.779 97V97.3H166.079V97H165.779ZM153.269 97V75.1H152.669V97H153.269ZM152.969 75.4H156.209V74.8H152.969V75.4ZM155.909 75.1V94.03H156.509V75.1H155.909ZM156.209 94.33H165.779V93.73H156.209V94.33ZM165.479 94.03V97H166.079V94.03H165.479ZM165.779 96.7H152.969V97.3H165.779V96.7ZM170.507 97H170.207V97.3H170.507V97ZM170.507 75.1V74.8H170.207V75.1H170.507ZM183.377 75.1H183.677V74.8H183.377V75.1ZM183.377 77.98V78.28H183.677V77.98H183.377ZM173.687 77.98V77.68H173.387V77.98H173.687ZM173.687 84.19H173.387V84.49H173.687V84.19ZM182.327 84.19H182.627V83.89H182.327V84.19ZM182.327 87.04V87.34H182.627V87.04H182.327ZM173.687 87.04V86.74H173.387V87.04H173.687ZM173.687 94.12H173.387V94.42H173.687V94.12ZM183.377 94.12H183.677V93.82H183.377V94.12ZM183.377 97V97.3H183.677V97H183.377ZM170.807 97V75.1H170.207V97H170.807ZM170.507 75.4H183.377V74.8H170.507V75.4ZM183.077 75.1V77.98H183.677V75.1H183.077ZM183.377 77.68H173.687V78.28H183.377V77.68ZM173.387 77.98V84.19H173.987V77.98H173.387ZM173.687 84.49H182.327V83.89H173.687V84.49ZM182.027 84.19V87.04H182.627V84.19H182.027ZM182.327 86.74H173.687V87.34H182.327V86.74ZM173.387 87.04V94.12H173.987V87.04H173.387ZM173.687 94.42H183.377V93.82H173.687V94.42ZM183.077 94.12V97H183.677V94.12H183.077ZM183.377 96.7H170.507V97.3H183.377V96.7ZM193.055 97H192.755V97.3H193.055V97ZM193.055 78.07H193.355V77.77H193.055V78.07ZM187.205 78.07H186.905V78.37H187.205V78.07ZM187.205 75.07V74.77H186.905V75.07H187.205ZM202.145 75.07H202.445V74.77H202.145V75.07ZM202.145 78.07V78.37H202.445V78.07H202.145ZM196.295 78.07V77.77H195.995V78.07H196.295ZM196.295 97V97.3H196.595V97H196.295ZM193.355 97V78.07H192.755V97H193.355ZM193.055 77.77H187.205V78.37H193.055V77.77ZM187.505 78.07V75.07H186.905V78.07H187.505ZM187.205 75.37H202.145V74.77H187.205V75.37ZM201.845 75.07V78.07H202.445V75.07H201.845ZM202.145 77.77H196.295V78.37H202.145V77.77ZM195.995 78.07V97H196.595V78.07H195.995ZM196.295 96.7H193.055V97.3H196.295V96.7Z" fill="#00FFE0"/>
</g>
<defs>
<filter id="filter0_f_5_15042" x="0" y="0" width="299" height="145" filterUnits="userSpaceOnUse" color-interpolation-filters="sRGB">
<feFlood flood-opacity="0" result="BackgroundImageFix"/>
<feBlend mode="normal" in="SourceGraphic" in2="BackgroundImageFix" result="shape"/>
<feGaussianBlur stdDeviation="10" result="effect1_foregroundBlur_5_15042"/>
</filter>
<filter id="filter1_d_5_15042" x="25.208" y="24.4502" width="250.585" height="94.1001" filterUnits="userSpaceOnUse" color-interpolation-filters="sRGB">
<feFlood flood-opacity="0" result="BackgroundImageFix"/>
<feColorMatrix in="SourceAlpha" type="matrix" values="0 0 0 0 0 0 0 0 0 0 0 0 0 0 0 0 0 0 127 0" result="hardAlpha"/>
<feOffset dx="1" dy="-1"/>
<feGaussianBlur stdDeviation="2"/>
<feComposite in2="hardAlpha" operator="out"/>
<feColorMatrix type="matrix" values="0 0 0 0 0.905882 0 0 0 0 0.568627 0 0 0 0 0.92549 0 0 0 1 0"/>
<feBlend mode="normal" in2="BackgroundImageFix" result="effect1_dropShadow_5_15042"/>
<feBlend mode="normal" in="SourceGraphic" in2="effect1_dropShadow_5_15042" result="shape"/>
</filter>
<filter id="filter2_d_5_15042" x="25.208" y="24.4502" width="250.585" height="95.1499" filterUnits="userSpaceOnUse" color-interpolation-filters="sRGB">
<feFlood flood-opacity="0" result="BackgroundImageFix"/>
<feColorMatrix in="SourceAlpha" type="matrix" values="0 0 0 0 0 0 0 0 0 0 0 0 0 0 0 0 0 0 127 0" result="hardAlpha"/>
<feOffset dx="1" dy="-1"/>
<feGaussianBlur stdDeviation="2"/>
<feComposite in2="hardAlpha" operator="out"/>
<feColorMatrix type="matrix" values="0 0 0 0 0.905882 0 0 0 0 0.568627 0 0 0 0 0.92549 0 0 0 1 0"/>
<feBlend mode="normal" in2="BackgroundImageFix" result="effect1_dropShadow_5_15042"/>
<feBlend mode="normal" in="SourceGraphic" in2="effect1_dropShadow_5_15042" result="shape"/>
</filter>
<filter id="filter3_d_5_15042" x="86.3638" y="37.5" width="125.782" height="68.5" filterUnits="userSpaceOnUse" color-interpolation-filters="sRGB">
<feFlood flood-opacity="0" result="BackgroundImageFix"/>
<feColorMatrix in="SourceAlpha" type="matrix" values="0 0 0 0 0 0 0 0 0 0 0 0 0 0 0 0 0 0 127 0" result="hardAlpha"/>
<feOffset dy="-1"/>
<feGaussianBlur stdDeviation="5"/>
<feComposite in2="hardAlpha" operator="out"/>
<feColorMatrix type="matrix" values="0 0 0 0 0 0 0 0 0 1 0 0 0 0 0.88 0 0 0 1 0"/>
<feBlend mode="normal" in2="BackgroundImageFix" result="effect1_dropShadow_5_15042"/>
<feBlend mode="normal" in="SourceGraphic" in2="effect1_dropShadow_5_15042" result="shape"/>
</filter>
<linearGradient id="paint0_linear_5_15042" x1="149.5" y1="29.4502" x2="149.5" y2="116.6" gradientUnits="userSpaceOnUse">
<stop offset="0.265625" stop-color="#440B40"/>
<stop offset="1" stop-color="#FE02EB" stop-opacity="0"/>
</linearGradient>
</defs>
</svg>
