<?xml version="1.0" encoding="UTF-8"?>
<svg width="30px" height="21px" viewBox="0 0 30 21" version="1.1" xmlns="http://www.w3.org/2000/svg" xmlns:xlink="http://www.w3.org/1999/xlink">
    <title>discord-icon</title>
    <g id="Page-1" stroke="none" stroke-width="1" fill="none" fill-rule="evenodd">
        <g id="1920px" transform="translate(-820.000000, -14810.000000)" fill="#FFFFFF">
            <g id="Stopka" transform="translate(0.000000, 14733.000000)">
                <g id="iCONS" transform="translate(820.000000, 73.000000)">
                    <path d="M27.6423849,12.7226297 L27.6423849,10.9896272 L27.6423849,9.2566247 L25.90932,9.2566247 L25.90932,7.52362219 L25.90932,5.79061969 L24.1762551,5.79061969 L22.4431902,5.79061969 L22.4431902,4.05761719 L20.7101253,4.05761719 L18.9770604,4.05761719 L17.2439955,4.05761719 L17.2439955,5.79061969 L15.5109306,5.79061969 L13.7778657,5.79061969 L12.0448008,5.79061969 L12.0448008,4.05761719 L10.3117359,4.05761719 L8.57867096,4.05761719 L6.84560647,4.05761719 L6.84560647,5.79061969 L5.11254156,5.79061969 L3.37947665,5.79061969 L3.37947665,7.52362219 L3.37947665,9.2566247 L1.68973833,9.2566247 L1.68973833,10.9896272 L1.68973833,12.7226297 L1.68973833,14.4556322 L0,14.4556322 L0,16.1886347 L0,17.9216372 L0,19.6546397 L0,21.3876422 L1.68973833,21.3876422 L1.73306491,21.3876422 L3.42280323,21.3876422 L3.42280323,23.1206447 L5.15586793,23.1206447 L5.15586793,24.8536472 L6.88893284,24.8536472 L8.62199775,24.8536472 L8.62199775,23.1206447 L8.62199775,21.3876422 L10.3550627,21.3876422 L12.0881276,21.3876422 L13.8211925,21.3876422 L15.5542582,21.3876422 L17.2873231,21.3876422 L19.020388,21.3876422 L20.7534529,21.3876422 L20.7534529,23.1206447 L20.7534529,24.8536472 L22.4865178,24.8536472 L24.2195827,24.8536472 L24.2195827,23.1206447 L25.9526477,23.1206447 L25.9526477,21.3876422 L27.6857126,21.3876422 L29.4187775,21.3876422 L29.4187775,19.6546397 L29.4187775,17.9216372 L29.4187775,16.1886347 L29.4187775,14.4556322 L27.6423849,14.4556322 L27.6423849,12.7226297 Z M6.84560647,16.1886347 L6.84560647,14.4556322 L6.84560647,12.7226297 L6.88893284,12.7226297 L8.62199775,12.7226297 L10.3550627,12.7226297 L12.0881276,12.7226297 L12.0881276,14.4556322 L12.0881276,16.1886347 L12.0881276,17.9216372 L10.3550627,17.9216372 L8.62199775,17.9216372 L6.84560647,17.9216372 L6.84560647,16.1886347 Z M17.2439955,14.4556322 L17.2439955,12.7226297 L18.9770604,12.7226297 L20.7101253,12.7226297 L22.4431902,12.7226297 L22.4431902,14.4556322 L22.4431902,16.1886347 L22.4431902,17.9216372 L20.7101253,17.9216372 L18.9770604,17.9216372 L17.2439955,17.9216372 L17.2439955,16.1886347 L17.2439955,14.4556322 Z" id="discord-icon"></path>
                </g>
            </g>
        </g>
    </g>
</svg>