<?xml version="1.0" encoding="UTF-8"?>
<svg width="29px" height="29px" viewBox="0 0 29 29" version="1.1" xmlns="http://www.w3.org/2000/svg" xmlns:xlink="http://www.w3.org/1999/xlink">
    <title>facebook-icon</title>
    <g id="Page-1" stroke="none" stroke-width="1" fill="none" fill-rule="evenodd">
        <g id="1920px" transform="translate(-873.000000, -14806.000000)" fill="#FFFFFF" fill-rule="nonzero">
            <g id="Stopka" transform="translate(0.000000, 14733.000000)">
                <g id="iCONS" transform="translate(820.000000, 73.000000)">
                    <path d="M79.4008827,5.35930934 L77.6463469,5.35930934 L77.6463469,3.5728729 L75.8918112,3.5728729 L75.8918112,1.78643645 L74.1372754,1.78643645 L74.1372754,0 L72.3827397,0 L70.6282039,0 L68.8736682,0 L67.1191333,0 L65.3645976,0 L63.6100618,0 L61.9871159,0 L61.8555261,0 L60.2325802,0 L60.2325802,1.78643645 L58.4780444,1.78643645 L58.4780444,3.5728729 L56.7235089,3.5728729 L56.7235089,5.35930934 L54.9689732,5.35930934 L54.9689732,7.14574579 L53.2583008,7.14574579 L53.2583008,8.93218224 L53.2583008,10.7186187 L53.2583008,12.5050551 L53.2583008,14.2914916 L53.2583008,16.077928 L53.2583008,17.8643645 L53.2583008,19.6508009 L53.2583008,21.3925771 L54.9689732,21.3925771 L54.9689732,23.1790136 L56.7235089,23.1790136 L56.7235089,24.8314659 L58.4780444,24.8314659 L58.4780444,26.6179024 L60.2325802,26.6179024 L60.2325802,28.4043388 L61.9871159,28.4043388 L63.6977881,28.4043388 L65.4523238,28.4043388 L65.4523238,26.6179024 L65.4523238,24.8314659 L65.4523238,23.1790136 L65.4523238,23.0450295 L65.4523238,21.3925771 L65.4523238,19.6508009 L65.4523238,17.8643645 L63.6977881,17.8643645 L61.9871159,17.8643645 L61.9871159,16.077928 L61.9871159,14.2914916 L63.6977881,14.2914916 L65.4523238,14.2914916 L65.4523238,12.5050551 L65.4523238,10.7186187 L65.4523238,8.93218224 L65.4523238,7.14574579 L67.1191333,7.14574579 L67.1191333,5.35930934 L68.8736682,5.35930934 L70.6282039,5.35930934 L72.3827397,5.35930934 L72.3827397,7.14574579 L72.3827397,8.93218224 L70.6282039,8.93218224 L68.8736682,8.93218224 L68.8736682,10.7186187 L68.8736682,12.5050551 L68.8736682,14.2914916 L70.6282039,14.2914916 L72.3827397,14.2914916 L72.3827397,16.077928 L72.3827397,17.8643645 L70.6720683,17.8643645 L68.9175326,17.8643645 L68.9175326,19.6508009 L68.9175326,21.3925771 L68.9175326,23.1790136 L68.9175326,24.96545 L68.9175326,26.6179024 L68.9175326,26.7518865 L68.9175326,28.4043388 L70.6720683,28.4043388 L72.3827397,28.4043388 L72.4266041,28.4043388 L74.1372754,28.4043388 L74.1372754,26.7518865 L75.8918112,26.7518865 L75.8918112,24.96545 L77.6463469,24.96545 L77.6463469,23.1790136 L79.4008827,23.1790136 L79.4008827,21.3925771 L81.1554184,21.3925771 L81.1554184,19.6508009 L81.1554184,17.8643645 L81.1554184,16.077928 L81.1554184,14.2914916 L81.1554184,12.5050551 L81.1554184,10.7186187 L81.1554184,8.93218224 L81.1554184,7.14574579 L79.4008827,7.14574579 L79.4008827,5.35930934 Z" id="facebook-icon"></path>
                </g>
            </g>
        </g>
    </g>
</svg>