<svg width="575" height="230" viewBox="0 0 575 230" fill="none" xmlns="http://www.w3.org/2000/svg">
<rect x="4.5" y="3.5" width="566" height="223" fill="#D2C0A2" stroke="#D2C0A2" stroke-width="7"/>
<path d="M0.80957 227H575V230H0.80957V227Z" fill="black"/>
<path d="M574 -9.79596e-05L575 0.000468912L575 230H574L574 -9.79596e-05Z" fill="black"/>
<path d="M566.937 40.3364L563.706 37L560.476 40.3364" stroke="black" stroke-width="2" stroke-linecap="round" stroke-linejoin="round"/>
<path d="M554 28H557V224H554V28Z" fill="white" fill-opacity="0.7"/>
<rect x="2.5" y="26.5" width="550" height="177" stroke="black" stroke-width="3"/>
<rect x="0.80957" y="19.001" width="573.222" height="6" fill="#938671"/>
<path d="M568 0H574V21H568V0Z" fill="#938671"/>
<path d="M571 28H574V226H571V28Z" fill="#938671"/>
<path d="M556.603 28H571.127V32H556.603V28Z" fill="white" fill-opacity="0.7"/>
<rect x="26.9531" y="205" width="496.728" height="4" fill="white" fill-opacity="0.7"/>
<path d="M557.006 45.9727H571.611L571.127 49.3091H557.006V45.9727Z" fill="#938671"/>
<path d="M26.9531 224H527.07V227H26.9531V224Z" fill="#938671"/>
<rect x="27.3062" y="223.093" width="14.4578" height="3.23059" transform="rotate(-90 27.3062 223.093)" fill="white" fill-opacity="0.7"/>
<path d="M14.6914 212L11.4608 215.336L14.6914 218.672" stroke="black" stroke-width="2" stroke-linecap="round" stroke-linejoin="round"/>
<path d="M3.23047 205H21.1437V208H3.23047V205Z" fill="white" fill-opacity="0.7"/>
<rect x="3.61475" y="223.092" width="20.4604" height="3.33642" fill="#938671"/>
<path d="M21.1436 223.5V205H24.0484V223.5H21.1436Z" fill="#938671"/>
<rect x="24.0752" y="226.428" width="22.2428" height="3.23059" transform="rotate(-90 24.0752 226.428)" fill="black"/>
<path d="M0.80957 227.541L0.80957 205H3.61488L3.61488 227.541H0.80957Z" fill="black"/>
<path d="M3.71436 223L3.71436 208H6.6192L6.6192 223H3.71436Z" fill="white" fill-opacity="0.7"/>
<path d="M552.807 49.3096H574.516V52.646H552.807V49.3096Z" fill="black"/>
<rect x="553.698" y="25.001" width="21.3022" height="3.33642" fill="black"/>
<path d="M560.237 189.729L563.467 193.065L566.698 189.729" stroke="black" stroke-width="2" stroke-linecap="round" stroke-linejoin="round"/>
<path d="M538.7 219.756L541.93 216.419L538.7 213.083" stroke="black" stroke-width="2" stroke-linecap="round" stroke-linejoin="round"/>
<path d="M553.674 174.157H574.236V177.494H553.674V174.157Z" fill="#938671"/>
<path d="M553.698 180.5L571.005 180.83V184.166H553.679L553.698 180.5Z" fill="white" fill-opacity="0.7"/>
<path d="M529.975 205H547.314V208.634H530.085L529.975 205Z" fill="white" fill-opacity="0.7"/>
<rect x="553.776" y="205.298" width="17.2298" height="3.33642" fill="white" fill-opacity="0.7"/>
<path d="M553.698 198.5L574.236 198.625V201.961H553.698V198.5Z" fill="#938671"/>
<rect x="530.084" y="224.093" width="20.4604" height="3.33642" fill="#938671"/>
<path d="M553.776 224.093H574.032V227.429H553.776V224.093Z" fill="#938671"/>
<rect x="571.005" y="198.625" width="17.7942" height="3.23059" transform="rotate(-90 571.005 198.625)" fill="#938671"/>
<path d="M547.314 224.5V205H550.545V224.5H547.314Z" fill="#938671"/>
<path d="M523.624 224.093V205.093H527.013V224.093H523.624Z" fill="#938671"/>
<path d="M550.545 227.428V204.5H553.776V227.428H550.545Z" fill="black"/>
<path d="M526.854 227.541V205H530.085V227.541H526.854Z" fill="black"/>
<path d="M553.698 198.625V184.167H557.006V198.625H553.698Z" fill="white" fill-opacity="0.7"/>
<path d="M530.084 224V208.635H533.315V224H530.084Z" fill="white" fill-opacity="0.7"/>
<path d="M553.674 177.494H574.236V180.831H553.674V177.494Z" fill="black"/>
<path d="M553.478 201.961H574.236V205.297H553.776L553.478 201.961Z" fill="black"/>
<rect x="557" y="66" width="14" height="62" fill="#B5A58B"/>
</svg>
