<?xml version="1.0" encoding="UTF-8"?>
<svg width="27px" height="29px" viewBox="0 0 27 29" version="1.1" xmlns="http://www.w3.org/2000/svg" xmlns:xlink="http://www.w3.org/1999/xlink">
    <title>insta-icon</title>
    <g id="Page-1" stroke="none" stroke-width="1" fill="none" fill-rule="evenodd">
        <g id="1920px" transform="translate(-973.000000, -14806.000000)" fill="#FFFFFF">
            <g id="Stopka" transform="translate(0.000000, 14733.000000)">
                <g id="iCONS" transform="translate(820.000000, 73.000000)">
                    <g id="insta-icon" transform="translate(153.134766, 0.119629)">
                        <path d="M15.8841817,8.82449259 L15.8841817,7.05957031 L14.1192594,7.05957031 L12.3543371,7.05957031 L10.5894149,7.05957031 L10.5894149,8.82449259 L8.82449259,8.82449259 L8.82449259,10.5894149 L7.05957031,10.5894149 L7.05957031,12.3543371 L7.05957031,14.1192594 L7.05957031,15.8841817 L7.05957031,17.649104 L8.82449259,17.649104 L8.82449259,19.4140263 L10.5894149,19.4140263 L12.3543371,19.4140263 L14.1192594,19.4140263 L15.8841817,19.4140263 L17.649104,19.4140263 L17.649104,17.649104 L19.4140263,17.649104 L19.4140263,15.8841817 L19.4140263,14.1192594 L19.4140263,12.3543371 L19.4140263,10.5894149 L17.649104,10.5894149 L17.649104,8.82449259 L15.8841817,8.82449259 Z M17.649104,15.8841817 L15.8841817,15.8841817 L15.8841817,17.649104 L14.1192594,17.649104 L12.3543371,17.649104 L10.5894149,17.649104 L10.5894149,15.8841817 L8.82449259,15.8841817 L8.82449259,14.1192594 L8.82449259,12.3543371 L10.5894149,12.3543371 L10.5894149,10.5894149 L12.3543371,10.5894149 L14.1192594,10.5894149 L15.8841817,10.5894149 L15.8841817,12.3543371 L17.649104,12.3543371 L17.649104,14.1192594 L17.649104,15.8841817 Z" id="Vector"></path>
                        <path d="M21.1784966,7.05957031 L21.1784966,8.82449269 L19.4135742,8.82449269 L19.4135742,7.05957031 L21.1784966,7.05957031 Z" id="Vector"></path>
                        <path d="M15.8844564,24.6645508 L14.119534,24.6645508 L12.3546116,24.6645508 L10.5896892,24.6645508 L8.82476673,24.6645508 L7.0598443,24.6645508 L5.29492188,24.6645508 L5.29492188,26.4294732 L7.0598443,26.4294732 L7.0598443,28.1943955 L8.82476673,28.1943955 L10.5896892,28.1943955 L12.3546116,28.1943955 L14.119534,28.1943955 L15.8844564,28.1943955 L17.6493789,28.1943955 L19.4143013,28.1943955 L19.4143013,26.4294732 L21.1351013,26.4294732 L21.1351013,24.6645508 L19.4143013,24.6645508 L17.6493789,24.6645508 L15.8844564,24.6645508 Z" id="Vector" fill-rule="nonzero"></path>
                        <path d="M24.6647918,5.29476718 L24.6647918,3.52984478 L22.8998693,3.52984478 L22.8998693,1.76492239 L21.1349469,1.76492239 L19.4141468,1.76492239 L19.4141468,0 L17.6492244,0 L15.884302,0 L14.1193795,0 L12.3544571,0 L10.5895346,0 L8.8246122,0 L7.05968976,0 L7.05968976,1.76492239 L5.29476732,1.76492239 L3.52984488,1.76492239 L3.52984488,3.52984478 L1.76492244,3.52984478 L1.76492244,5.29476718 L1.76492244,7.05968957 L0,7.05968957 L0,8.82461196 L0,10.5895344 L0,12.3544567 L0,14.1193791 L0,15.8843015 L0,17.6492239 L0,19.4141463 L0,21.1349463 L1.76492244,21.1349463 L1.76492244,22.8998687 L1.76492244,24.6647911 L3.52984488,24.6647911 L5.29476732,24.6647911 L5.29476732,22.8998687 L3.52984488,22.8998687 L3.52984488,21.1349463 L3.52984488,19.4141463 L3.52984488,17.6492239 L3.52984488,15.8843015 L3.52984488,14.1193791 L3.52984488,12.3544567 L3.52984488,10.5895344 L3.52984488,8.82461196 L3.52984488,7.05968957 L3.52984488,5.29476718 L5.29476732,5.29476718 L5.29476732,3.52984478 L7.05968976,3.52984478 L8.8246122,3.52984478 L10.5895346,3.52984478 L12.3544571,3.52984478 L14.1193795,3.52984478 L15.884302,3.52984478 L17.6492244,3.52984478 L19.4141468,3.52984478 L21.1349469,3.52984478 L21.1349469,5.29476718 L22.8998693,5.29476718 L22.8998693,7.05968957 L22.8998693,8.82461196 L22.8998693,10.5895344 L22.8998693,12.3544567 L22.8998693,14.1193791 L22.8998693,15.8843015 L22.8998693,17.6492239 L22.8998693,19.4141463 L22.8998693,21.1349463 L22.8998693,22.8998687 L21.1349469,22.8998687 L21.1349469,24.6647911 L22.8998693,24.6647911 L24.6647918,24.6647911 L24.6647918,22.8998687 L24.6647918,21.1349463 L26.4297142,21.1349463 L26.4297142,19.4141463 L26.4297142,17.6492239 L26.4297142,15.8843015 L26.4297142,14.1193791 L26.4297142,12.3544567 L26.4297142,10.5895344 L26.4297142,8.82461196 L26.4297142,7.05968957 L24.6647918,7.05968957 L24.6647918,5.29476718 Z" id="Vector" fill-rule="nonzero"></path>
                    </g>
                </g>
            </g>
        </g>
    </g>
</svg>