<svg width="32" height="22" viewBox="0 0 32 22" fill="none" xmlns="http://www.w3.org/2000/svg">
<path d="M30.25 0H1.375C0.615608 0 0 0.615608 0 1.375C0 2.13439 0.615608 2.75 1.375 2.75H30.25C31.0094 2.75 31.625 2.13439 31.625 1.375C31.625 0.615608 31.0094 0 30.25 0Z" fill="white"/>
<path d="M30.25 9.625H1.375C0.615608 9.625 0 10.2406 0 11C0 11.7594 0.615608 12.375 1.375 12.375H30.25C31.0094 12.375 31.625 11.7594 31.625 11C31.625 10.2406 31.0094 9.625 30.25 9.625Z" fill="white"/>
<path d="M30.25 19.25H1.375C0.615608 19.25 0 19.8656 0 20.625C0 21.3844 0.615608 22 1.375 22H30.25C31.0094 22 31.625 21.3844 31.625 20.625C31.625 19.8656 31.0094 19.25 30.25 19.25Z" fill="white"/>
</svg>
