<?xml version="1.0" encoding="UTF-8"?>
<svg width="27px" height="27px" viewBox="0 0 27 27" version="1.1" xmlns="http://www.w3.org/2000/svg" xmlns:xlink="http://www.w3.org/1999/xlink">
    <title>ship-icon</title>
    <g id="Page-1" stroke="none" stroke-width="1" fill="none" fill-rule="evenodd">
        <g id="1920px" transform="translate(-1023.000000, -14806.000000)" fill="#FFFFFF">
            <g id="Stopka" transform="translate(0.000000, 14733.000000)">
                <g id="iCONS" transform="translate(820.000000, 73.000000)">
                    <g id="ship-icon" transform="translate(203.166016, 0.119629)">
                        <path d="M8.70090294,10.4412987 L8.70090294,8.70111809 L8.70090294,6.9609375 L6.96072235,6.9609375 L6.96072235,8.70111809 L5.22054176,8.70111809 L5.22054176,10.4412987 L3.48036118,10.4412987 L3.48036118,12.1814793 L1.74018059,12.1814793 L1.74018059,13.9216599 L0,13.9216599 L0,15.6618404 L1.74018059,15.6618404 L3.48036118,15.6618404 L5.22054176,15.6618404 L6.96072235,15.6618404 L8.70090294,15.6618404 L8.70090294,13.9216599 L8.70090294,12.1814793 L8.70090294,10.4412987 Z" id="Vector" fill-rule="nonzero"></path>
                        <path d="M19.1419825,17.401804 L19.1419825,19.1419844 L17.4018023,19.1419844 L17.4018023,20.838661 L15.661622,20.838661 L13.9214418,20.838661 L13.9214418,19.1419844 L13.9214418,17.401804 L15.661622,17.401804 L15.661622,15.6616236 L17.4018023,15.6616236 L17.4018023,13.9214432 L19.1419825,13.9214432 L19.1419825,12.1812628 L19.1419825,10.4410824 L17.4018023,10.4410824 L17.4018023,8.70090201 L15.661622,8.70090201 L15.661622,6.96072161 L15.661622,5.22054121 L13.9214418,5.22054121 L13.9214418,3.48036081 L13.9214418,1.7401804 L13.9214418,0 L12.1812616,0 L12.1812616,1.7401804 L12.1812616,3.48036081 L10.4410814,3.48036081 L10.4410814,5.22054121 L10.4410814,6.96072161 L10.4410814,8.70090201 L10.4410814,10.4410824 L10.4410814,12.1812628 L10.4410814,13.9214432 L10.4410814,15.6616236 L8.70090113,15.6616236 L8.70090113,17.401804 L10.4410814,17.401804 L12.1812616,17.401804 L12.1812616,19.1419844 L12.1812616,20.838661 L10.4410814,20.838661 L8.70090113,20.838661 L6.9607209,20.838661 L6.9607209,19.1419844 L6.9607209,17.401804 L5.22054068,17.401804 L3.48036045,17.401804 L1.74018023,17.401804 L0,17.401804 L0,19.1419844 L0,20.838661 L1.74018023,20.838661 L1.74018023,22.5788414 L3.48036045,22.5788414 L3.48036045,24.3190218 L5.22054068,24.3190218 L5.22054068,26.0592022 L6.9607209,26.0592022 L8.70090113,26.0592022 L10.4410814,26.0592022 L12.1812616,26.0592022 L13.9214418,26.0592022 L15.661622,26.0592022 L17.4018023,26.0592022 L19.1419825,26.0592022 L19.1419825,24.3190218 L20.8386589,24.3190218 L20.8386589,22.5788414 L20.8386589,20.838661 L22.5788391,20.838661 L22.5788391,19.1419844 L24.3190193,19.1419844 L24.3190193,17.401804 L22.5788391,17.401804 L20.8386589,17.401804 L19.1419825,17.401804 Z" id="Vector" fill-rule="nonzero"></path>
                        <path d="M26.0595161,15.6616211 L26.0595161,17.4018012 L24.3193359,17.4018012 L24.3193359,15.6616211 L26.0595161,15.6616211 Z" id="Vector"></path>
                    </g>
                </g>
            </g>
        </g>
    </g>
</svg>