<?xml version="1.0" encoding="UTF-8"?>
<svg width="29px" height="29px" viewBox="0 0 29 29" version="1.1" xmlns="http://www.w3.org/2000/svg" xmlns:xlink="http://www.w3.org/1999/xlink">
    <title>telegram-icon</title>
    <g id="Page-1" stroke="none" stroke-width="1" fill="none" fill-rule="evenodd">
        <g id="1920px" transform="translate(-1072.000000, -14806.000000)" fill="#FFFFFF">
            <g id="Stopka" transform="translate(0.000000, 14733.000000)">
                <g id="iCONS" transform="translate(820.000000, 73.000000)">
                    <path d="M279.18039,5.32581353 L277.405119,5.32581353 L277.405119,3.55054235 L275.629847,3.55054235 L275.629847,1.77527118 L273.854576,1.77527118 L273.854576,0 L272.079305,0 L270.304034,0 L268.528763,0 L266.753491,0 L264.978219,0 L263.202948,0 L261.427677,0 L259.652406,0 L259.652406,1.77527118 L257.877135,1.77527118 L257.877135,3.55054235 L256.146245,3.55054235 L256.146245,5.32581353 L254.370974,5.32581353 L254.370974,7.10108471 L252.595703,7.10108471 L252.595703,8.87635589 L252.595703,10.6516271 L252.595703,12.4268982 L252.595703,14.2021694 L252.595703,15.9774406 L252.595703,17.7527118 L252.595703,19.527983 L252.595703,21.3032541 L254.370974,21.3032541 L254.370974,23.0785253 L254.370974,24.8537965 L256.146245,24.8537965 L257.921517,24.8537965 L257.921517,26.6290677 L259.696788,26.6290677 L259.696788,28.4043388 L261.472059,28.4043388 L263.24733,28.4043388 L265.022601,28.4043388 L266.797873,28.4043388 L268.573144,28.4043388 L270.348415,28.4043388 L272.123686,28.4043388 L273.898957,28.4043388 L273.898957,26.6290677 L275.674228,26.6290677 L275.674228,24.8537965 L277.4495,24.8537965 L277.4495,23.0785253 L279.224771,23.0785253 L279.224771,21.3032541 L281.000042,21.3032541 L281.000042,19.527983 L281.000042,17.7527118 L281.000042,15.9774406 L281.000042,14.2021694 L281.000042,12.4268982 L281.000042,10.6516271 L281.000042,8.87635589 L281.000042,7.10108471 L279.18039,7.10108471 L279.18039,5.32581353 Z M272.123686,12.4268982 L272.123686,14.2021694 L272.123686,15.9774406 L272.123686,17.7527118 L272.123686,19.527983 L272.123686,21.3032541 L272.123686,23.0785253 L270.348415,23.0785253 L268.573144,23.0785253 L268.573144,21.3032541 L266.797873,21.3032541 L266.797873,19.527983 L265.022601,19.527983 L265.022601,17.7527118 L265.022601,15.9774406 L266.797873,15.9774406 L266.797873,14.2021694 L268.573144,14.2021694 L268.573144,12.4268982 L266.797873,12.4268982 L265.022601,12.4268982 L265.022601,14.2021694 L263.24733,14.2021694 L263.24733,15.9774406 L261.472059,15.9774406 L261.472059,17.7527118 L259.696788,17.7527118 L257.921517,17.7527118 L257.921517,15.9774406 L256.146245,15.9774406 L256.146245,14.2021694 L257.921517,14.2021694 L259.696788,14.2021694 L259.696788,12.4268982 L261.472059,12.4268982 L263.24733,12.4268982 L263.24733,10.6516271 L265.022601,10.6516271 L266.797873,10.6516271 L268.573144,10.6516271 L268.573144,8.87635589 L270.348415,8.87635589 L272.123686,8.87635589 L272.123686,10.6516271 L272.123686,12.4268982 Z" id="telegram-icon"></path>
                </g>
            </g>
        </g>
    </g>
</svg>