<?xml version="1.0" encoding="UTF-8"?>
<svg width="26px" height="22px" viewBox="0 0 26 22" version="1.1" xmlns="http://www.w3.org/2000/svg" xmlns:xlink="http://www.w3.org/1999/xlink">
    <title>twitter-icon</title>
    <g id="Page-1" stroke="none" stroke-width="1" fill="none" fill-rule="evenodd">
        <g id="1920px" transform="translate(-924.000000, -14809.000000)" fill="#FFFFFF" fill-rule="nonzero">
            <g id="Stopka" transform="translate(0.000000, 14733.000000)">
                <g id="iCONS" transform="translate(820.000000, 73.000000)">
                    <path d="M125.8569,5.33672927 L124.158301,5.33672927 L124.158301,3.55029297 L122.416149,3.55029297 L120.673997,3.55029297 L120.673997,5.33672927 L118.931845,5.33672927 L118.931845,7.12316556 L117.189693,7.12316556 L117.189693,8.90960186 L117.189693,10.6960382 L115.447541,10.6960382 L113.705389,10.6960382 L111.963237,10.6960382 L111.963237,8.90960186 L110.221085,8.90960186 L110.221085,7.12316556 L108.478933,7.12316556 L108.478933,5.33672927 L106.736781,5.33672927 L106.736781,7.12316556 L106.736781,8.90960186 L104.994629,8.90960186 L104.994629,10.6960382 L104.994629,12.4824745 L104.994629,14.2689107 L106.736781,14.2689107 L106.736781,16.055347 L106.736781,17.8417833 L108.478933,17.8417833 L108.478933,19.6282196 L110.221085,19.6282196 L111.963237,19.6282196 L111.963237,21.4146559 L110.221085,21.4146559 L108.478933,21.4146559 L106.736781,21.4146559 L106.736781,23.2010922 L108.478933,23.2010922 L108.478933,24.8535461 L110.221085,24.8535461 L111.963237,24.8535461 L113.705389,24.8535461 L115.447541,24.8535461 L117.189693,24.8535461 L118.931845,24.8535461 L118.931845,23.2010922 L120.673997,23.2010922 L122.416149,23.2010922 L122.416149,21.4146559 L122.416149,19.6282196 L124.158301,19.6282196 L124.158301,17.8417833 L125.8569,17.8417833 L125.8569,16.055347 L125.8569,14.2689107 L125.8569,12.4824745 L125.8569,10.6960382 L127.599052,10.6960382 L127.599052,8.90960186 L129.341204,8.90960186 L129.341204,7.12316556 L129.341204,5.33672927 L127.599052,5.33672927 L125.8569,5.33672927 Z" id="twitter-icon"></path>
                </g>
            </g>
        </g>
    </g>
</svg>